<?xml version="1.0" encoding="utf-8"?>
<!-- Generator: Adobe Illustrator 26.0.0, SVG Export Plug-In . SVG Version: 6.00 Build 0)  -->
<svg version="1.1" id="Layer_1" xmlns="http://www.w3.org/2000/svg" xmlns:xlink="http://www.w3.org/1999/xlink" x="0px" y="0px"
	 viewBox="0 0 512 512" style="enable-background:new 0 0 512 512;" xml:space="preserve">
<style type="text/css">
	.st0{fill:#B2E49F;}
	.st1{fill:#95D5A4;}
	.st2{fill:#BF907F;}
	.st3{fill:#B47C67;}
	.st4{fill:#FEDF7D;}
	.st5{fill:#BE8E7F;}
	.st6{fill:#FECF64;}
	.st7{fill:#6056AB;}
	.st8{fill:#5F55AB;}
	.st9{fill:#FDDE7D;}
	.st10{fill:#FCDD7D;}
</style>
<g>
	<path class="st0" d="M298,427.9c12.4,4.9,21,13.1,23.3,27.8c1-3,1.8-5.2,2.4-7.4c0.7-2.3,1.8-4.2,3.1-6.2
		c8.1-12.4,22.8-18,36.8-13.8c13.6,4,23.2,16.9,23.3,31.3c0.1,9.3,0,18.6,0,27.9c0,12-5.1,19.1-16.4,23.3c-0.6,0.2-1.1,0.7-1.6,1
		c-46,0-92,0-137.9,0c-0.7-0.4-1.4-0.9-2.1-1.1c-10.8-4-15.9-11.2-15.9-22.7c0-9.8,0-19.6,0-29.5c0-7.9,3.2-14.4,8.1-20.3
		c3.3-4,8-6.4,12-9.6c3,0.3,5.3,2.1,7.9,3.3c7.4,5.4,12.7,12.4,15.1,21.7c2.2-8.6,6.7-15.3,13.5-20.4
		C278.1,426.9,287.8,425.9,298,427.9z"/>
	<path class="st1" d="M233.1,428.7c-4,3.2-8.6,5.5-12,9.6c-4.9,5.9-8.1,12.5-8.1,20.3c0,9.8,0,19.6,0,29.5
		c0,11.4,5.1,18.7,15.9,22.7c0.7,0.3,1.4,0.8,2.1,1.1c-29.7,0-59.3,0-89,0c-4-2.2-8.3-4-11.4-7.6c-3.5-4.1-5.7-8.6-5.7-14
		c0-10.8-0.2-21.6,0.1-32.4c0.3-15,13.4-29.1,28.2-30.9c15.9-1.9,31.3,7.9,35.7,22.6c0.4,1.4,0.8,2.8,1.5,5.2
		c3.2-13.8,11-22.5,23.5-27C220.4,427,226.8,425.6,233.1,428.7z"/>
	<path class="st2" d="M274,0.1c2.7,1.1,5.7,1.9,8.2,3.4c10,5.7,15.6,14.2,15.8,25.9c0.1,5.8,0.1,11.6,0.1,17.5
		c-18.7,0-37.4-0.1-56.1-0.1c0.3-6.6,0-13.1,0.9-19.7c1.1-8.4,4.4-15.2,11.1-20.6c3.4-2.8,7.8-3.5,11.1-6.2C268,0.1,271,0.1,274,0.1
		z"/>
	<path class="st3" d="M265,0.1c-3.3,2.8-7.7,3.4-11.1,6.2c-6.7,5.5-9.9,12.2-11.1,20.6c-0.9,6.6-0.6,13.2-0.9,19.7
		c-9.3,0.1-18.7,0.1-28,0.2c0-5.5,0-11,0-16.4c0.1-14.6,7.5-24.6,21.4-29.4c0.6-0.2,1.1-0.6,1.6-1C246.3,0.1,255.7,0.1,265,0.1z"/>
	<path class="st4" d="M214,46.9c9.3,0,18.7-0.1,28-0.2c18.7,0,37.4,0.1,56.1,0.1c41,0,81.9,0.1,122.9,0.1c22.3,0,38.9,9.8,50.1,28.9
		c4.4,7.4,6.8,15.7,6.8,24.2c0.2,46.6,0.2,93.2,0,139.9c-0.1,25.1-21,48.2-46,52.3c-3.8,0.6-7.6,0.9-11.4,0.9
		c-40.8,0-81.6,0.1-122.4,0.1c-28,0-56.1,0-84.1,0c-31.9,0-63.9-0.1-95.8-0.1c-6.7-3.1-14.1-4.3-20.4-8.7
		C82,273.6,72.4,259.1,72.2,240c-0.5-46.1-0.2-92.2-0.2-138.3c0-22.3,14.2-42.5,35.2-50.9c3.9-1.6,8.5-1.1,11.7-4.2
		c3.3-1.1,6.6,0.4,9.9,0.4C157.2,46.9,185.6,46.9,214,46.9z M276,173.2c0.4,14.8,7.1,29.8,21.5,40.9c19.5,14.9,43.4,15.8,64.3,2.5
		c2.6-1.7,4.2-1.7,6.3,0.7c2.1,2.4,4.3,4.6,6.8,6.6c3.3,2.5,7.9,2,10.3-1c2.6-3.2,2.7-6.8,0-10c-1.8-2.2-3.8-4.2-6-6
		c-2.6-2.2-2.8-4-0.9-7.1c7.3-11.7,9.9-24.4,7.7-38.2c-4.6-28.3-30.1-48.3-59.5-46.2C298.8,117.1,276.2,141.6,276,173.2z
		 M263.5,224.9c6-0.1,9.4-5.4,7.3-11.2c-11.6-31-23.3-61.9-35-92.8c-1.6-4.3-4.7-6.9-9.4-6.9c-4.7,0-7.8,2.5-9.5,6.8
		c-11.8,30.9-23.6,61.8-35.3,92.7c-1.9,5-0.1,9,4.2,10.7c4.2,1.7,8.2-0.3,10.2-5.3c1.9-4.6,3.7-9.3,5.3-14c0.9-2.6,2.2-3.6,5.1-3.5
		c13.1,0.1,26.3,0.2,39.4,0c3.1,0,4.4,1.1,5.3,3.9c1.6,4.7,3.5,9.3,5.2,14C257.7,222.9,260.2,224.8,263.5,224.9z M124.9,170
		c0,15.3,0,30.6,0,46c0,6.3,2.7,9.4,7.8,9.3c4.9-0.1,7.4-3.2,7.4-9.2c0-11.5,0.1-23-0.1-34.5c-0.1-3.4,0.8-4.7,4.4-4.5
		c7.3,0.3,14.6,0.1,22,0.1c5.6,0,9.2-3.1,9.1-7.7c0-4.6-3.5-7.5-9.3-7.6c-7.5-0.1-15-0.1-22.5,0c-2.8,0-3.8-0.9-3.8-3.7
		c0.1-7.8,0.2-15.7,0-23.5c-0.1-3.2,1.1-3.9,4.1-3.9c8.2,0.2,16.3,0.1,24.5,0c6.2,0,10.1-3.2,10-8c-0.1-4.6-3.9-7.7-9.8-7.7
		c-11.3-0.1-22.6,0-34,0c-7.4,0-10,2.6-10,9.9C124.9,140.1,124.9,155,124.9,170z"/>
	<path class="st5" d="M298,427.9c-10.2-2.1-19.9-1.1-28.4,5.3c-6.8,5.1-11.3,11.8-13.5,20.4c-2.4-9.3-7.7-16.2-15.1-21.7
		c1.8-1.6,1-3.8,1-5.7c0-34.4,0.1-68.9,0-103.3c0-3.8,0.9-5.2,5-5.1c17,0.2,33.9,0.1,50.9,0.1C297.9,354.6,297.9,391.3,298,427.9z"
		/>
	<path class="st3" d="M297.9,317.9c-17,0-33.9,0.1-50.9-0.1c-4.1-0.1-5,1.3-5,5.1c0.1,34.4,0.1,68.9,0,103.3c0,1.9,0.8,4-1,5.7
		c-2.6-1.2-4.9-3-7.9-3.3c-6.2-3.2-12.7-1.7-19.1-0.8c0-44.9-0.1-89.8-0.1-134.8c28,0,56.1,0,84.1,0
		C298,301.4,297.9,309.7,297.9,317.9z"/>
	<path class="st6" d="M119,46.5c-3.3,3.1-7.8,2.6-11.7,4.2c-20.9,8.4-35.1,28.6-35.2,50.9c0,46.1-0.3,92.2,0.2,138.3
		c0.2,19,9.7,33.6,25.4,44.3c6.3,4.3,13.7,5.6,20.4,8.7c-13.3-0.3-26.7,1.5-39.8-1.1c-25.2-5-44.4-28.3-44.3-53.7
		c0.1-46.8-0.1-93.6,0.2-140.4c0.1-22.1,19.2-44.1,42.5-49.5C90.6,45.1,104.8,46.2,119,46.5z"/>
	<path class="st7" d="M276,173.2c0.2-31.6,22.8-56.1,50.6-58.1c29.4-2.1,54.9,17.9,59.5,46.2c2.2,13.8-0.4,26.5-7.7,38.2
		c-1.9,3.1-1.7,4.9,0.9,7.1c2.2,1.8,4.1,3.9,6,6c2.7,3.3,2.6,6.8,0,10c-2.4,3.1-7,3.6-10.3,1c-2.5-1.9-4.8-4.2-6.8-6.6
		c-2-2.3-3.6-2.3-6.3-0.7c-20.9,13.3-44.8,12.5-64.3-2.5C283.1,203.1,276.4,188,276,173.2z M371.4,170.4c-0.3-2.8-0.4-5.7-1-8.4
		c-4.9-21.5-25.1-34.8-46.6-30.8c-21,3.9-35,24.1-31.8,46c3.9,26.4,35.2,41.6,58.5,28.3c2.7-1.5,3.4-2.7,0.8-5
		c-2.6-2.3-5.1-4.8-7.4-7.4c-3.6-4-3.6-8.3-0.1-11.5c3.2-3,7.4-2.8,11.1,0.7c2.4,2.3,4.8,4.6,7,7.1c2.2,2.4,3.5,2.4,5-0.7
		C369.7,182.9,371.5,176.9,371.4,170.4z"/>
	<path class="st7" d="M263.5,224.9c-3.3-0.2-5.8-2-7.1-5.5c-1.8-4.6-3.7-9.3-5.2-14c-0.9-2.8-2.2-3.9-5.3-3.9
		c-13.1,0.2-26.3,0.2-39.4,0c-2.8,0-4.2,0.9-5.1,3.5c-1.6,4.7-3.4,9.4-5.3,14c-2,4.9-6,6.9-10.2,5.3c-4.3-1.7-6.1-5.7-4.2-10.7
		c11.7-30.9,23.5-61.8,35.3-92.7c1.6-4.3,4.8-6.8,9.5-6.8c4.7,0,7.8,2.6,9.4,6.9c11.7,30.9,23.4,61.8,35,92.8
		C272.9,219.5,269.4,224.9,263.5,224.9z M226.3,139.7c-6,15.9-11.7,30.8-17.7,46.3c11.2,0,21.6,0,32,0c3.2,0,2.5-1.6,1.8-3.5
		C237.2,168.6,231.9,154.7,226.3,139.7z"/>
	<path class="st8" d="M124.9,170c0-15,0-30,0-45c0-7.3,2.6-9.8,10-9.9c11.3,0,22.6,0,34,0c5.9,0,9.7,3.1,9.8,7.7
		c0.1,4.8-3.9,7.9-10,8c-8.2,0-16.3,0.1-24.5,0c-2.9-0.1-4.1,0.7-4.1,3.9c0.2,7.8,0.2,15.7,0,23.5c-0.1,2.8,1,3.8,3.8,3.7
		c7.5-0.1,15-0.1,22.5,0c5.7,0,9.2,3,9.3,7.6c0,4.6-3.5,7.6-9.1,7.7c-7.3,0.1-14.7,0.2-22-0.1c-3.6-0.1-4.5,1.1-4.4,4.5
		c0.2,11.5,0.1,23,0.1,34.5c0,6-2.6,9.1-7.4,9.2c-5.1,0.1-7.8-3-7.8-9.3C124.9,200.7,124.9,185.3,124.9,170z"/>
	<path class="st9" d="M371.4,170.4c0.1,6.5-1.7,12.5-4.5,18.3c-1.5,3.1-2.8,3.1-5,0.7c-2.2-2.5-4.6-4.8-7-7.1
		c-3.7-3.5-7.9-3.7-11.1-0.7c-3.4,3.2-3.5,7.5,0.1,11.5c2.3,2.6,4.8,5.1,7.4,7.4c2.6,2.3,1.9,3.5-0.8,5
		c-23.2,13.2-54.5-1.9-58.5-28.3c-3.2-21.9,10.7-42.1,31.8-46c21.5-4,41.7,9.3,46.6,30.8C371.1,164.7,371.1,167.6,371.4,170.4z"/>
	<path class="st10" d="M226.3,139.7c5.6,15,10.9,28.9,16.1,42.9c0.7,1.9,1.4,3.5-1.8,3.5c-10.4-0.1-20.8,0-32,0
		C214.6,170.5,220.2,155.6,226.3,139.7z"/>
</g>
</svg>
