<?xml version="1.0" encoding="utf-8"?>
<!-- Generator: Adobe Illustrator 26.0.0, SVG Export Plug-In . SVG Version: 6.00 Build 0)  -->
<svg version="1.1" id="Layer_1" xmlns="http://www.w3.org/2000/svg" xmlns:xlink="http://www.w3.org/1999/xlink" x="0px" y="0px"
	 viewBox="0 0 512 512" style="enable-background:new 0 0 512 512;" xml:space="preserve">
<style type="text/css">
	.st0{fill:#ED7D31;}
</style>
<path class="st0" d="M135.83,479.99c-16.18,0-31.83,0-47.48,0c-20.67,0-41.34,0.02-62.01-0.01c-7.73-0.01-10.34-2.71-10.35-10.64
	c-0.02-14-0.01-28,0-42c0.01-8.95,2.31-11.29,11.14-11.36c1.46-0.01,2.91,0,4.61,0c0-10.72,0-20.99,0-32.01
	c-1.89,0-3.81,0.02-5.73,0c-7.2-0.08-10.01-2.81-10.02-9.98c-0.03-26.17-0.01-52.33-0.01-78.5c0-17.33,0-34.67,0-52
	c0-9.24,2.23-11.48,11.45-11.55c1.31-0.01,2.62,0,4.24,0c0-42.74,0-85.16,0-127.61c-6.71-2.72-7.68-4.14-7.69-11.52
	c-0.01-14.17-0.02-28.33,0-42.5c0.01-7.78,2.68-10.4,10.59-10.4c42.34-0.01,84.68-0.01,127.02-0.01c1.97,0,3.93,0,6.44,0
	c0-5.19-0.06-9.97,0.02-14.75c0.1-6.24,3-9.23,9.23-9.23c52.51-0.04,105.02-0.04,157.53,0c6.24,0,9.13,2.99,9.28,9.19
	c0.06,2.33,0.01,4.67,0.01,7c0,2.33,0,4.66,0,7.79c2.07,0,3.98,0,5.89,0c42.17,0,84.35,0,126.52,0c9.27,0,11.63,2.3,11.63,11.37
	c0.01,13.83,0.01,27.67,0,41.5c-0.01,7.4-0.99,8.85-7.86,11.61c0,42.25,0,84.55,0,127.57c2.55,0,4.97-0.09,7.39,0.02
	c5.3,0.24,8.26,3.17,8.43,8.51c0.14,4.33,0.04,8.67,0.04,13c0,39,0,78,0,117c0,11.76-1.44,13.25-13.03,13.5
	c-0.81,0.02-1.61,0.1-2.69,0.17c0,10.58,0,20.98,0,31.83c2,0,3.78-0.02,5.57,0c7.27,0.07,10.11,2.77,10.13,9.86
	c0.05,14.83,0.05,29.67,0,44.5c-0.03,6.77-2.95,9.62-9.86,9.63c-31.51,0.03-63.01,0.01-94.52,0.01c-7.65,0-15.3,0-23.67,0
	c0,2.68,0.09,5.1-0.02,7.52c-0.25,5.3-3.19,8.2-8.51,8.46c-1.5,0.07-3,0.02-4.5,0.02c-68.68,0-137.35,0-206.03,0
	c-11.24,0-12.78-1.55-13.02-13C136,482.19,135.91,481.38,135.83,479.99z M391.23,131.57c10.49,19.04,9.19,31.27-5.69,46.03
	c-9.11,9.04-16.55,19.05-22.37,30.38c-1.52,2.96-3.26,5.81-4.96,8.67c-4.11,6.94-9.16,7.71-14.95,2.17
	c-14.22-13.59-28.41-27.22-42.57-40.86c-6.78-6.53-6.31-11.25,1.8-16.2c14.23-8.68,28.17-17.54,39.18-30.52
	c8.85-10.44,20.56-13.54,33.96-9.9c1.4,0.38,3.45-0.27,4.74-1.14c6.22-4.15,3.03-10.37,3.68-15.96c-13.55,0-26.62,0-39.8,0
	c-0.06,1.14-0.14,1.95-0.15,2.77c-0.2,11.35-1.78,12.91-13.12,12.91c-38.85,0-77.69,0-116.54,0c-11.84,0-23.67,0.01-35.51,0
	c-8.27-0.01-10.84-2.53-10.9-10.61c-0.01-1.63,0-3.25,0-5.1c-13.5,0-26.56,0-40.01,0c0,3.75-0.17,7.22,0.05,10.68
	c0.22,3.62,5.09,7.54,8.18,6.64c14.01-4.09,25.73-0.2,35.12,10.53c8.99,10.28,19.31,18.75,31.28,25.28
	c2.48,1.35,4.81,2.99,7.19,4.52c7.74,4.93,8.32,9.65,1.82,15.92c-13.92,13.42-27.88,26.8-41.84,40.18
	c-7.06,6.76-11.86,6.19-16.49-2.35c-8.19-15.14-16.96-29.75-30.03-41.39c-5.1-4.54-7.68-10.77-8.78-17.57
	c-1.45-9.03,1.26-17.02,6.61-25.07c-12.25-5.98-8.44-17.45-9.23-27.29c-5.54,0-10.6,0-15.65,0c0,42.64,0,84.92,0,127.49
	c1.17,0.06,2.14,0.15,3.1,0.17c11.03,0.21,12.66,1.86,12.66,12.86c0,34.84,0,69.68,0,104.52c0,8.17,0.03,16.34-0.01,24.5
	c-0.03,7.26-2.77,10.05-9.86,10.15c-1.93,0.03-3.87,0-5.76,0c0,11.02,0,21.41,0,31.74c31.99,0,63.6,0,95.66,0
	c0-7.22-0.02-14.18,0-21.14c0.02-7.91,2.62-10.57,10.39-10.6c7.34-0.03,14.68,0.19,22-0.14c1.96-0.09,4.39-1.33,5.67-2.83
	c3.78-4.42,6.74-9.58,10.69-13.83c5.96-6.41,8.06-13.56,7.4-22.22c-0.63-8.22-0.14-16.52-0.14-25.01c-2.02,0-3.34,0.01-4.66,0
	c-8.94-0.06-11.11-2.26-11.43-11.17c-0.55-15.66-1.13-31.31-1.86-46.96c-0.1-2.04-0.88-4.19-1.86-6.01
	c-7.4-13.6-4.58-30.45,6.83-40.06c12.2-10.28,29.21-10.48,41.36-0.5c11.91,9.79,14.98,26.47,7.62,40.31
	c-1.19,2.23-1.94,4.94-2.06,7.46c-0.76,15.98-1.27,31.98-1.91,47.96c-0.24,5.96-3.13,8.78-9.05,8.95c-2.25,0.07-4.5,0.01-6.96,0.01
	c0,12.24-0.06,23.73,0.08,35.22c0.02,1.5,0.83,3.18,1.75,4.44c5.3,7.27,10.6,14.55,16.24,21.56c1.21,1.5,3.76,2.59,5.75,2.67
	c7.32,0.31,14.67,0.1,22,0.13c7.47,0.04,10.16,2.76,10.19,10.31c0.03,7.11,0.01,14.22,0.01,21.33c32.33,0,64.06,0,96.02,0
	c0-10.01,0-19.66-0.01-29.32c0-0.63-0.16-1.26-0.28-2.16c-1.12-0.06-2.08-0.14-3.05-0.16c-11.03-0.21-12.66-1.86-12.66-12.86
	c0-33.5,0-67.01,0-100.51c0-9.5-0.03-19,0.01-28.5c0.03-7.28,2.75-10.06,9.84-10.15c1.93-0.03,3.87,0,5.79,0
	c0-43.01,0-85.4,0-127.77c-5.31,0-10.25,0-15.6,0C399.84,114.44,402.94,125.68,391.23,131.57z M327.87,32.27
	c-48.13,0-95.85,0-143.42,0c0,24.07,0,47.79,0,71.39c48,0,95.6,0,143.42,0C327.87,79.8,327.87,56.21,327.87,32.27z M351.87,432.34
	c-66.81,0-133.19,0-199.44,0c0,16.07,0,31.79,0,47.39c66.68,0,132.95,0,199.44,0C351.87,463.87,351.87,448.27,351.87,432.34z
	 M167.8,56.26c-42.78,0-85.16,0-127.41,0c0,10.73,0,21.12,0,31.4c42.66,0,84.92,0,127.41,0C167.8,77.15,167.8,66.88,167.8,56.26z
	 M344.33,87.66c42.62,0,84.99,0,127.48,0c0-10.65,0-21.04,0-31.38c-42.71,0-85.08,0-127.48,0C344.33,66.9,344.33,77.16,344.33,87.66
	z M416.34,367.61c21.45,0,42.5,0,63.41,0c0-40.07,0-79.78,0-119.39c-21.33,0-42.26,0-63.41,0
	C416.34,288.08,416.34,327.67,416.34,367.61z M95.77,248.3c-21.4,0-42.45,0-63.41,0c0,40.05,0,79.76,0,119.43
	c21.31,0,42.25,0,63.41,0C95.77,327.88,95.77,288.29,95.77,248.3z M368.34,463.65c37.43,0,74.47,0,111.41,0c0-10.73,0-21.11,0-31.41
	c-37.32,0-74.25,0-111.41,0C368.34,442.75,368.34,453.02,368.34,463.65z M32.35,432.2c0,10.79,0,21.17,0,31.4
	c34.74,0,69.12,0,103.4,0c0-10.66,0-20.93,0-31.4C101.21,432.2,66.95,432.2,32.35,432.2z M208.27,415.63c32.13,0,63.84,0,95.4,0
	c0-5.41,0-10.47,0-15.39c-32,0-63.59,0-95.4,0C208.27,405.43,208.27,410.37,208.27,415.63z M79.72,135.7c0-10.85,0-21.1,0-31.45
	c-10.66,0-21.03,0-31.37,0c0,10.7,0,21.08,0,31.45C58.98,135.7,69.24,135.7,79.72,135.7z M432.36,135.59c10.73,0,21.11,0,31.39,0
	c0-10.72,0-21.09,0-31.42c-10.64,0-20.9,0-31.39,0C432.36,114.68,432.36,124.94,432.36,135.59z M48.19,183.56
	c10.85,0,21.22,0,31.57,0c0-10.63,0-20.89,0-31.34c-10.62,0-20.99,0-31.57,0C48.19,162.77,48.19,173.02,48.19,183.56z M463.9,152.22
	c-10.61,0-20.99,0-31.45,0c0,10.66,0,21.03,0,31.35c10.71,0,21.08,0,31.45,0C463.9,172.94,463.9,162.69,463.9,152.22z M48.19,231.58
	c10.83,0,21.2,0,31.57,0c0-10.63,0-20.88,0-31.35c-10.61,0-20.99,0-31.57,0C48.19,210.76,48.19,221.02,48.19,231.58z M48.08,415.67
	c10.82,0,21.2,0,31.56,0c0-10.69,0-21.07,0-31.29c-10.74,0-21.12,0-31.56,0C48.08,394.92,48.08,405.06,48.08,415.67z M432.32,415.74
	c10.81,0,21.07,0,31.53,0c0-10.61,0-20.99,0-31.44c-10.66,0-21.04,0-31.53,0C432.32,394.89,432.32,405.14,432.32,415.74z
	 M463.82,231.86c0-10.82,0-21.2,0-31.55c-10.69,0-21.07,0-31.29,0c0,10.74,0,21.12,0,31.55
	C443.07,231.86,453.21,231.86,463.82,231.86z M146.75,174.12c6.63-7.39,13.57-15.13,21.58-24.06c-3.05-2.64-7.14-6.06-11.09-9.63
	c-6.57-5.93-15.92-5.98-22.15-0.02c-6.22,5.95-6.77,15.51-0.83,22.07C137.81,166.41,142.02,169.75,146.75,174.12z M344.31,150.16
	c7.83,8.75,14.79,16.54,21.95,24.55c4.4-4.62,8.54-8.51,12.14-12.85c5.32-6.41,4.6-15.59-1.25-21.33
	c-5.73-5.62-14.81-6.27-20.97-1.16C351.59,143.17,347.34,147.39,344.31,150.16z M272.04,240.03c0.04-8.72-7.07-15.96-15.77-16.06
	c-8.94-0.1-16.25,7.19-16.19,16.14c0.05,8.63,7.38,15.87,16.02,15.82C264.84,255.88,271.99,248.74,272.04,240.03z M156.63,189.19
	c1.67,2.91,4.27,7.42,7.13,12.39c10.69-10.27,20.88-20.05,31.35-30.1c-4.87-3.04-9.33-5.83-14.59-9.12
	C172.69,171.16,164.95,179.86,156.63,189.19z M348.4,201.56c1.53-2.66,2.75-4.79,3.98-6.92c4.22-7.36,4.22-7.36-1.83-13.17
	c-6.54-6.27-13.09-12.53-19.59-18.75c-4.85,3.07-9.17,5.81-13.88,8.79C327.56,181.57,337.81,191.4,348.4,201.56z M247.43,303.6
	c6.23,0,11.43,0,17.27,0c0-11.06,0-21.76,0-32.11c-5.89,0-11.74,0-17.27,0C247.43,282.14,247.43,292.72,247.43,303.6z
	 M248.38,383.58c5.45,0,10.09,0,15.4,0c-2.79-3.66-5.13-6.73-7.77-10.19C253.33,376.97,251.07,379.99,248.38,383.58z"/>
<path class="st0" d="M448.28,255.99c13.27,0.08,24.02,11.08,23.82,24.37c-0.2,13.04-11.02,23.61-24.13,23.58
	c-13.01-0.03-23.83-10.87-23.82-23.88C424.15,266.74,435.01,255.91,448.28,255.99z M448.09,271.99c-4.32,0.04-7.87,3.57-7.92,7.89
	c-0.05,4.49,3.77,8.22,8.26,8.04c4.3-0.17,7.77-3.85,7.67-8.14C456,275.48,452.38,271.96,448.09,271.99z"/>
<path class="st0" d="M472.1,336.14c-0.09,13.25-11.07,23.97-24.4,23.81c-12.99-0.16-23.68-11.12-23.56-24.15
	c0.13-13.3,11.11-24.01,24.4-23.81C461.59,312.2,472.19,323.06,472.1,336.14z M456.1,336.18c0.12-4.3-3.33-8-7.62-8.18
	c-4.5-0.19-8.32,3.49-8.31,8c0.01,4.3,3.56,7.88,7.87,7.94C452.33,343.99,455.97,340.48,456.1,336.18z"/>
<path class="st0" d="M87.98,279.89c-0.02,13.32-10.9,24.13-24.18,24.04c-13.05-0.1-23.76-10.87-23.79-23.92
	c-0.02-13.27,10.84-24.07,24.18-24.03C77.2,256.01,88,266.87,87.98,279.89z M63.84,287.92c4.29,0.07,7.96-3.41,8.12-7.71
	c0.17-4.46-3.59-8.3-8.07-8.24c-4.29,0.06-7.85,3.66-7.86,7.95C56.01,284.23,59.55,287.85,63.84,287.92z"/>
<path class="st0" d="M63.93,311.98c13.02-0.09,23.94,10.65,24.05,23.65c0.11,13.33-10.65,24.27-23.91,24.3
	c-13.07,0.03-23.91-10.62-24.05-23.65C39.87,322.99,50.61,312.07,63.93,311.98z M64.04,343.93c4.3-0.04,7.87-3.61,7.91-7.91
	c0.05-4.47-3.8-8.21-8.28-8.03c-4.29,0.17-7.76,3.87-7.66,8.16C56.13,340.45,59.76,343.97,64.04,343.93z"/>
</svg>
