<?xml version="1.0" encoding="utf-8"?>
<!-- Generator: Adobe Illustrator 26.0.0, SVG Export Plug-In . SVG Version: 6.00 Build 0)  -->
<svg version="1.1" id="Layer_1" xmlns="http://www.w3.org/2000/svg" xmlns:xlink="http://www.w3.org/1999/xlink" x="0px" y="0px"
	 viewBox="0 0 512 512" style="enable-background:new 0 0 512 512;" xml:space="preserve">
<style type="text/css">
	.st0{fill:#ED7D31;}
</style>
<path class="st0" d="M259.39,119.9c-1.14-7-2.94-13.67-3.21-20.4c-1.15-28.42,11.98-50.04,33.88-66.64
	c26.44-20.04,56.84-26.99,89.5-24.46c26.75,2.07,51.12,10.83,71.56,28.66c18.9,16.48,29.91,36.94,28.64,62.66
	c-0.33,6.72-2.13,13.37-3.3,20.31c-0.11-0.16-0.05,0.05,0.07,0.09c21.48,7.25,27.46,15.65,27.46,38.61c0,79.19,0,158.38,0,237.56
	c0,22.83-12.82,35.7-35.55,35.7c-52.01,0-104.01,0-156.02,0c-1.82,0-3.63,0-6.1,0c1.34,5.52,2.57,10.59,3.88,16.01
	c5.83,0,11.48-0.05,17.12,0.01c14.32,0.15,24.48,10.3,24.63,24.65c0.08,7.33,0.08,14.67-0.01,22.01c-0.07,6.26-2.98,9.31-9.15,9.32
	c-57.84,0.04-115.68,0.04-173.52,0c-6.27,0-9.24-2.97-9.31-9.15c-0.09-7.83-0.17-15.67,0.03-23.5c0.33-12.83,10.55-22.96,23.42-23.3
	c5.98-0.15,11.97-0.03,18.25-0.03c1.32-5.34,2.58-10.43,3.97-16.02c-2.35,0-4.16,0-5.97,0c-52.17,0-104.34,0-156.52,0
	c-22.1,0-35.22-13.04-35.22-35.01c-0.01-80.69-0.01-161.38,0-242.06c0-21.98,13.11-35.02,35.21-35.02c70.17,0,140.35,0,210.52,0
	C255.64,119.9,257.61,119.9,259.39,119.9z M367.98,189.94c3.14-6.25,5.83-11.39,8.3-16.63c1.86-3.94,4.57-6.08,9.07-6.72
	c17.7-2.54,34.25-8.35,48.82-18.96c16.58-12.07,28.37-27.44,29.63-48.63c1.31-22.15-9.27-39.03-25.98-52.41
	c-17.17-13.75-37.21-20.47-58.89-22.21c-29.37-2.35-56.73,3.64-80.43,21.94c-35.13,27.12-35.31,70.65-0.66,98.35
	c15.34,12.27,33.06,19.05,52.33,21.83c4.89,0.71,7.8,2.99,9.77,7.3C362.27,178.9,364.93,183.86,367.98,189.94z M24.26,392.16
	c-2.38,16.19,5.56,24.07,21.21,24.03c141-0.34,282-0.3,422.99-0.01c12.47,0.03,22.45-7.88,18.87-24.02
	C333.09,392.16,178.82,392.16,24.26,392.16z M487.54,247.74c0.22-0.74,0.39-1.05,0.39-1.35c0.02-31.65,0.14-63.3-0.02-94.95
	c-0.04-8.9-7.25-15.56-16.27-15.4c-1.96,0.04-4.57,1.13-5.75,2.63c-18.61,23.77-42.78,38-72.47,43.17
	c-1.99,0.35-4.33,2.23-5.32,4.04c-4.16,7.58-7.93,15.38-11.71,23.16c-1.76,3.62-3.77,6.8-8.3,6.85c-4.52,0.05-6.66-3.01-8.43-6.66
	c-3.85-7.93-7.81-15.81-11.83-23.66c-0.71-1.38-1.89-2.52-3.57-4.69c0,23.2,0,44.94,0,66.87
	C392.14,247.74,439.72,247.74,487.54,247.74z M47.76,375.72c0.91-18.29,9.15-32.16,24.47-41.66c-11.48-18.49-10.66-34.27,2.15-45.9
	c11.57-10.5,28.96-11.14,41.33-1.46c6.29,4.93,10.1,11.4,11.63,19.23c2.06,10.53-1.3,19.62-6.94,26.78
	c5.88,6.59,12.45,12.08,16.52,19.04c4.15,7.08,5.83,15.61,8.71,23.84c6.63,0,14.36,0,22.05,0c0-37.31,0-74.26,0-111.35
	c-47.98,0-95.71,0-143.38,0c0,37.38,0,74.45,0,111.46C32.31,375.72,39.93,375.72,47.76,375.72z M327.61,375.74
	c0-37.43,0-74.49,0-111.55c-47.97,0-95.58,0-143.34,0c0,37.31,0,74.38,0,111.43c8.06,0,15.79,0,21.87,0
	c3.05-8.58,4.72-16.99,8.86-23.91c4.21-7.04,10.86-12.61,16.59-18.98c-10.88-15.4-10.19-32.21,2.32-44.09
	c11.71-11.13,29.89-11.75,42.48-1.45c13.65,11.17,14.91,27.74,3.33,46.9c15.34,9.49,23.49,23.42,24.44,41.65
	C312.01,375.74,319.63,375.74,327.61,375.74z M392.47,333.97c-11.5-16.4-11.11-32.57,0.71-44.6c10.63-10.81,27.8-12.63,40.38-4.29
	c6.51,4.32,10.92,10.25,13.11,17.71c3.4,11.59,0.21,21.9-7.17,31.2c15.74,9.79,23.7,23.65,24.67,41.7c7.96,0,15.69,0,23.48,0
	c0-37.35,0-74.41,0-111.34c-48.07,0-95.8,0-143.38,0c0,37.36,0,74.3,0,111.29c8.04,0,15.79,0,23.56,0
	C368.78,357.38,376.94,343.65,392.47,333.97z M23.92,247.54c8.43,0,16.15,0,23.86,0c1.01-18.31,9.18-32.04,24.38-41.45
	c-11.45-19.58-10.26-35.68,3.26-46.86c12.08-9.99,29.44-9.87,41.36,0.29c13.26,11.3,14.34,27.23,2.93,46.56
	c15.33,9.5,23.47,23.43,24.41,41.56c8.02,0,15.74,0,23.47,0c0-37.36,0-74.42,0-111.73c-1.68,0-2.99,0-4.31,0
	c-40.49,0-80.99-0.01-121.48,0.01c-11.56,0.01-17.85,6.35-17.86,17.99c-0.02,24.5-0.01,49-0.01,73.5
	C23.92,234.04,23.92,240.68,23.92,247.54z M184.31,135.9c0,37.66,0,74.72,0,111.8c7.97,0,15.59,0,23.46,0
	c0.97-18.22,9.07-32.17,24.45-41.63c-11.48-19.31-10.42-35.2,2.88-46.55c11.91-10.16,29.3-10.32,41.36-0.3
	c6.15,5.11,9.82,11.71,11.11,19.56c1.66,10.15-1.57,18.99-8.13,27.1c15.68,9.71,23.79,23.66,24.73,41.73c8.05,0,15.78,0,23.66,0
	c0-23.29,0-46.26,0-69.11c-0.25-0.21-0.35-0.36-0.48-0.41c-23.7-7.18-43.25-20.29-58-40.36c-0.72-0.99-2.45-1.74-3.71-1.75
	C238.63,135.88,211.65,135.9,184.31,135.9z M175.97,487.67c53.67,0,106.69,0,160,0c0-4.31,0.01-8.29,0-12.27
	c-0.01-9.09-2.35-11.4-11.59-11.4c-45.63,0-91.25,0-136.88,0c-1.17,0-2.34-0.06-3.5,0.03c-4.78,0.35-7.79,3.16-7.98,7.91
	C175.81,477.07,175.97,482.22,175.97,487.67z M127.58,247.69c0.87-17.12-14.34-32-32.2-31.75c-17.34,0.24-32.35,15.51-30.99,31.75
	C85.45,247.69,106.52,247.69,127.58,247.69z M287.74,247.76c0.17-18.4-15.57-32.92-33.99-31.77c-16.68,1.04-31.14,16.69-29.19,31.77
	C245.46,247.76,266.39,247.76,287.74,247.76z M64.15,375.67c21.46,0,42.52,0,63.57,0c0.09-17.57-14.44-31.8-32.04-31.69
	C78.33,344.08,64.02,358.32,64.15,375.67z M287.56,375.74c1.08-16.72-14.02-31.77-31.61-31.77c-17.6,0-32.74,15.12-31.58,31.77
	C245.43,375.74,266.5,375.74,287.56,375.74z M384.2,375.66c21.46,0,42.52,0,63.57,0c0.08-17.58-14.45-31.8-32.05-31.69
	C398.37,344.09,384.06,358.34,384.2,375.66z M218.33,447.79c25.3,0,50.07,0,75.28,0c-1.34-5.4-2.61-10.5-3.89-15.62
	c-22.68,0-44.96,0-67.55,0C220.9,437.36,219.65,442.44,218.33,447.79z M95.71,199.9c8.74,0.09,16.01-6.94,16.2-15.64
	c0.19-8.92-7.1-16.35-16.01-16.32c-8.74,0.03-15.87,7.13-15.95,15.88C79.88,192.48,87.06,199.81,95.71,199.9z M271.93,183.88
	c-0.02-8.72-7.19-15.91-15.89-15.94c-8.94-0.04-16.19,7.3-16.07,16.26c0.12,8.64,7.48,15.81,16.13,15.7
	C264.85,199.78,271.95,192.59,271.93,183.88z M96.08,295.97c-8.74-0.07-15.95,6.96-16.13,15.71c-0.17,8.65,6.94,16.08,15.57,16.26
	c8.94,0.19,16.37-7.05,16.38-15.96C111.92,303.26,104.78,296.04,96.08,295.97z M271.93,311.88c-0.04-8.72-7.22-15.89-15.93-15.9
	c-8.93-0.01-16.17,7.34-16.03,16.3c0.14,8.64,7.52,15.79,16.17,15.66C264.89,327.8,271.97,320.59,271.93,311.88z M415.9,327.94
	c8.74,0.01,15.95-7.07,16.05-15.78c0.11-8.92-7.24-16.28-16.15-16.17c-8.74,0.1-15.8,7.26-15.8,16.02
	C400,320.66,407.25,327.93,415.9,327.94z"/>
<path class="st0" d="M312.17,103.52c0-5.22,0-10.15,0-15.35c5.24,0,10.28,0,15.56,0c0,5.13,0,10.05,0,15.35
	C322.72,103.52,317.67,103.52,312.17,103.52z"/>
<path class="st0" d="M344.27,88.13c5.1,0,10.02,0,15.33,0c0,4.99,0,10.03,0,15.42c-4.95,0-9.99,0-15.33,0
	C344.27,98.47,344.27,93.43,344.27,88.13z"/>
<path class="st0" d="M391.79,88.12c0,5.27,0,10.19,0,15.44c-5.16,0-10.2,0-15.53,0c0-5.12,0-10.16,0-15.44
	C381.39,88.12,386.32,88.12,391.79,88.12z"/>
<path class="st0" d="M423.76,88.23c0,5.3,0,10.22,0,15.4c-5.14,0-10.07,0-15.38,0c0-4.96,0-10,0-15.4
	C413.3,88.23,418.33,88.23,423.76,88.23z"/>
</svg>
