<?xml version="1.0" encoding="utf-8"?>
<!-- Generator: Adobe Illustrator 26.0.0, SVG Export Plug-In . SVG Version: 6.00 Build 0)  -->
<svg version="1.1" id="Layer_1" xmlns="http://www.w3.org/2000/svg" xmlns:xlink="http://www.w3.org/1999/xlink" x="0px" y="0px"
	 viewBox="0 0 200 35.8" style="enable-background:new 0 0 200 35.8;" xml:space="preserve">
<style type="text/css">
	.st0{fill:url(#SVGID_1_);}
	.st1{fill:url(#SVGID_00000117677466687603840260000015514409701946616486_);}
	.st2{fill:none;}
	.st3{fill:url(#SVGID_00000070092588909732628680000005812753862590271129_);}
	.st4{fill:url(#SVGID_00000027579993089167743500000000454831589270502061_);}
	.st5{fill:#FFFFFF;}
	.st6{fill:url(#SVGID_00000096751816935744500050000001116169929193208454_);}
	.st7{fill:url(#SVGID_00000076579731250710047260000006126119839868226478_);}
	.st8{fill:url(#SVGID_00000152236934584313114800000012680320946106405305_);}
	.st9{fill:url(#SVGID_00000065793941209181257760000000254132387935957902_);}
	.st10{fill:#404041;}
</style>
<g>
	<g>
		<g>
			<radialGradient id="SVGID_1_" cx="11.7086" cy="15.8557" r="11.7329" gradientUnits="userSpaceOnUse">
				<stop  offset="0" style="stop-color:#FFFFFF"/>
				<stop  offset="0.7818" style="stop-color:#E5E5E5"/>
				<stop  offset="1" style="stop-color:#B8BABC"/>
			</radialGradient>
			<path class="st0" d="M4.5,7.6C-0.9,12.3-1.5,20.5,3.1,26c0.5,0.6,1.1,1.1,1.6,1.6C1.4,23.5,1.9,17.4,6,13.9
				c3.3-2.8,5.9-2.4,9.8,0.4c0,0,3.7,2.8,6.5,0c2.9-3-0.9-7-0.9-7c-2.1-2-4.5-3-7.1-3.2C11,3.9,7.5,5.1,4.5,7.6"/>
		</g>
		<g>
			
				<radialGradient id="SVGID_00000085966364789713919830000006378585966360113310_" cx="15.5104" cy="24.1271" r="11.7276" gradientUnits="userSpaceOnUse">
				<stop  offset="0" style="stop-color:#720000"/>
				<stop  offset="0.7394" style="stop-color:#971115"/>
				<stop  offset="1" style="stop-color:#BA2228"/>
			</radialGradient>
			<path style="fill:url(#SVGID_00000085966364789713919830000006378585966360113310_);" d="M6.9,14.5c-4.5,4.8-4,11.8,0.4,16.9
				c4.7,5.4,13,6,18.4,1.2c0.6-0.5,1.1-1.1,1.6-1.7c-4.1,3.4-10.2,3-13.7-1.1c-2.9-3.3-2.4-5.9,0.3-9.8c0,0,2.8-3.3,0.1-6.4
				c-0.7-0.8-1.9-1.1-2.7-1.2C9,12.3,6.9,14.5,6.9,14.5"/>
		</g>
		<path class="st2" d="M9.5,3.9C9,4.5,8.5,5.1,8,5.7C11.9,2,18,2,21.8,5.8c3.1,3.1,2.8,5.7,0.3,9.8c0,0-2.5,3.6,0.5,6.5
			c2.9,2.9,6.9-1.4,6.9-1.4c4.2-5.1,3.2-12-1.6-16.8c-2.5-2.5-5.9-3.8-9.2-3.8C15.4,0.1,12.1,1.4,9.5,3.9"/>
		<g>
			
				<radialGradient id="SVGID_00000180357804902008788870000004101035357560784559_" cx="24.2315" cy="20.0665" r="11.7162" gradientUnits="userSpaceOnUse">
				<stop  offset="0" style="stop-color:#FFFFFF"/>
				<stop  offset="0.7818" style="stop-color:#E5E5E5"/>
				<stop  offset="1" style="stop-color:#B8BABC"/>
			</radialGradient>
			<path style="fill:url(#SVGID_00000180357804902008788870000004101035357560784559_);" d="M29.9,22c-3.3,2.8-5.9,2.4-9.8-0.4
				c0,0-3.8-3.1-6.5,0c-2.8,3.1,0.9,7,0.9,7c4.8,4.6,11.7,4.1,16.9-0.3c5.5-4.7,6.1-12.9,1.4-18.4c-0.5-0.6-1.1-1.1-1.6-1.6
				C34.5,12.4,34,18.5,29.9,22"/>
		</g>
		<g>
			
				<radialGradient id="SVGID_00000033342999247078302240000001377981739551496858_" cx="20.3944" cy="11.6435" r="11.7428" gradientUnits="userSpaceOnUse">
				<stop  offset="0" style="stop-color:#720000"/>
				<stop  offset="0.7394" style="stop-color:#971115"/>
				<stop  offset="1" style="stop-color:#BA2228"/>
			</radialGradient>
			<path style="fill:url(#SVGID_00000033342999247078302240000001377981739551496858_);" d="M10.1,3.3C9.5,3.8,9,4.4,8.6,5
				c4.1-3.5,10.2-3.1,13.8,0.9c2.9,3.2,2.5,5.8-0.2,9.8c0,0-3,3.8,0.1,6.5c3.2,2.8,6.9-1,6.9-1c4.5-4.9,3.9-11.8-0.6-16.9
				c-2.4-2.7-5.7-4.1-9-4.3C16.2-0.2,12.8,0.9,10.1,3.3"/>
		</g>
	</g>
	<g>
		<g>
			<path class="st10" d="M46.5,24.2c0.1,0,0.1,0,0.2,0.1s0.1,0.1,0.1,0.2c0,0.1,0,0.1-0.1,0.2c-0.1,0.1-0.1,0.1-0.2,0.1
				c-0.1,0-0.1,0-0.2-0.1c-0.1-0.1-0.1-0.1-0.1-0.2c0-0.1,0-0.1,0.1-0.2C46.4,24.2,46.4,24.2,46.5,24.2z M46.3,25.3h0.3V28h-0.3
				V25.3z"/>
			<path class="st10" d="M51.2,25.3h0.3v0.5c0.1-0.2,0.3-0.3,0.5-0.4c0.2-0.1,0.4-0.1,0.6-0.1c0.2,0,0.4,0.1,0.5,0.2
				c0.2,0.1,0.3,0.2,0.3,0.4s0.1,0.4,0.1,0.8V28h-0.3v-1.3c0-0.3,0-0.5,0-0.6c0-0.2-0.1-0.3-0.2-0.4c-0.1-0.1-0.3-0.1-0.4-0.1
				c-0.2,0-0.4,0.1-0.6,0.2c-0.2,0.1-0.3,0.3-0.3,0.5c0,0.1,0,0.4,0,0.7v1h-0.3V25.3z"/>
			<path class="st10" d="M58.5,24.3h0.3v1h0.6v0.3h-0.6V28h-0.3v-2.4H58v-0.3h0.5V24.3z"/>
			<path class="st10" d="M66,27.1l0.3,0.2c-0.1,0.2-0.2,0.3-0.3,0.5c-0.1,0.1-0.3,0.2-0.4,0.3s-0.3,0.1-0.5,0.1
				c-0.4,0-0.8-0.1-1-0.4c-0.2-0.3-0.4-0.6-0.4-1c0-0.3,0.1-0.6,0.3-0.9c0.3-0.3,0.6-0.5,1.1-0.5c0.5,0,0.8,0.2,1.1,0.5
				c0.2,0.2,0.3,0.6,0.3,0.9h-2.4c0,0.3,0.1,0.6,0.3,0.8c0.2,0.2,0.4,0.3,0.7,0.3c0.1,0,0.3,0,0.4-0.1c0.1,0,0.2-0.1,0.3-0.2
				C65.8,27.4,65.9,27.3,66,27.1z M66,26.4c0-0.2-0.1-0.3-0.2-0.4s-0.2-0.2-0.4-0.3c-0.1-0.1-0.3-0.1-0.5-0.1
				c-0.3,0-0.5,0.1-0.7,0.3c-0.1,0.1-0.2,0.3-0.3,0.6H66z"/>
			<path class="st10" d="M73.2,25.3h0.3v2.2c0,0.4,0,0.7-0.1,0.8c-0.1,0.2-0.2,0.4-0.5,0.6c-0.2,0.1-0.5,0.2-0.8,0.2
				c-0.2,0-0.4,0-0.6-0.1c-0.2-0.1-0.3-0.2-0.5-0.3c-0.1-0.1-0.2-0.3-0.3-0.5h0.4c0.1,0.2,0.2,0.3,0.4,0.4c0.2,0.1,0.4,0.1,0.6,0.1
				c0.2,0,0.4,0,0.6-0.1s0.3-0.2,0.3-0.3c0.1-0.1,0.1-0.4,0.1-0.6v-0.1c-0.1,0.2-0.3,0.3-0.5,0.4C72.5,28,72.3,28,72.1,28
				c-0.2,0-0.5-0.1-0.7-0.2c-0.2-0.1-0.4-0.3-0.5-0.5c-0.1-0.2-0.2-0.4-0.2-0.7c0-0.3,0.1-0.5,0.2-0.7c0.1-0.2,0.3-0.4,0.5-0.5
				c0.2-0.1,0.5-0.2,0.7-0.2c0.2,0,0.4,0,0.6,0.1c0.2,0.1,0.3,0.2,0.5,0.4V25.3z M72.1,25.6c-0.2,0-0.4,0-0.5,0.1
				c-0.2,0.1-0.3,0.2-0.4,0.4c-0.1,0.2-0.1,0.4-0.1,0.5c0,0.3,0.1,0.5,0.3,0.7c0.2,0.2,0.5,0.3,0.8,0.3c0.3,0,0.6-0.1,0.8-0.3
				c0.2-0.2,0.3-0.4,0.3-0.8c0-0.2,0-0.4-0.1-0.5c-0.1-0.2-0.2-0.3-0.4-0.4C72.5,25.6,72.3,25.6,72.1,25.6z"/>
			<path class="st10" d="M78,25.3h0.4v0.4c0.1-0.2,0.2-0.3,0.3-0.3c0.1-0.1,0.2-0.1,0.4-0.1c0.1,0,0.2,0,0.3,0.1l-0.2,0.3
				c-0.1,0-0.1,0-0.2,0c-0.1,0-0.2,0-0.3,0.1c-0.1,0.1-0.2,0.2-0.2,0.4c0,0.2-0.1,0.5-0.1,0.9V28H78V25.3z"/>
			<path class="st10" d="M86.1,25.3V28h-0.3v-0.5c-0.1,0.2-0.3,0.3-0.5,0.4c-0.2,0.1-0.4,0.1-0.6,0.1c-0.4,0-0.7-0.1-1-0.4
				c-0.3-0.3-0.4-0.6-0.4-1c0-0.4,0.1-0.7,0.4-1s0.6-0.4,1-0.4c0.2,0,0.4,0,0.6,0.1c0.2,0.1,0.3,0.2,0.5,0.4v-0.5H86.1z M84.7,25.6
				c-0.2,0-0.4,0-0.5,0.1c-0.2,0.1-0.3,0.2-0.4,0.4c-0.1,0.2-0.1,0.4-0.1,0.5c0,0.2,0,0.4,0.1,0.5c0.1,0.2,0.2,0.3,0.4,0.4
				c0.2,0.1,0.3,0.1,0.5,0.1c0.2,0,0.4,0,0.5-0.1c0.2-0.1,0.3-0.2,0.4-0.4s0.1-0.3,0.1-0.6c0-0.3-0.1-0.6-0.3-0.8
				C85.3,25.7,85,25.6,84.7,25.6z"/>
			<path class="st10" d="M91,24.3h0.3v1h0.6v0.3h-0.6V28H91v-2.4h-0.5v-0.3H91V24.3z"/>
			<path class="st10" d="M98.6,27.1l0.3,0.2c-0.1,0.2-0.2,0.3-0.3,0.5c-0.1,0.1-0.3,0.2-0.4,0.3c-0.2,0.1-0.3,0.1-0.5,0.1
				c-0.4,0-0.8-0.1-1-0.4c-0.2-0.3-0.4-0.6-0.4-1c0-0.3,0.1-0.6,0.3-0.9c0.3-0.3,0.6-0.5,1.1-0.5c0.5,0,0.8,0.2,1.1,0.5
				c0.2,0.2,0.3,0.6,0.3,0.9h-2.4c0,0.3,0.1,0.6,0.3,0.8c0.2,0.2,0.4,0.3,0.7,0.3c0.1,0,0.3,0,0.4-0.1c0.1,0,0.2-0.1,0.3-0.2
				C98.4,27.4,98.5,27.3,98.6,27.1z M98.6,26.4c0-0.2-0.1-0.3-0.2-0.4c-0.1-0.1-0.2-0.2-0.4-0.3c-0.1-0.1-0.3-0.1-0.5-0.1
				c-0.3,0-0.5,0.1-0.7,0.3c-0.1,0.1-0.2,0.3-0.3,0.6H98.6z"/>
			<path class="st10" d="M106.1,24.3V28h-0.3v-0.5c-0.1,0.2-0.3,0.3-0.5,0.4c-0.2,0.1-0.4,0.1-0.6,0.1c-0.4,0-0.7-0.1-1-0.4
				c-0.3-0.3-0.4-0.6-0.4-1c0-0.4,0.1-0.7,0.4-1c0.3-0.3,0.6-0.4,1-0.4c0.2,0,0.4,0,0.6,0.1s0.3,0.2,0.5,0.4v-1.5H106.1z
				 M104.7,25.6c-0.2,0-0.4,0-0.5,0.1c-0.2,0.1-0.3,0.2-0.4,0.4c-0.1,0.2-0.1,0.4-0.1,0.5c0,0.2,0,0.4,0.1,0.5
				c0.1,0.2,0.2,0.3,0.4,0.4c0.2,0.1,0.3,0.1,0.5,0.1c0.2,0,0.4,0,0.5-0.1c0.2-0.1,0.3-0.2,0.4-0.4c0.1-0.2,0.1-0.3,0.1-0.6
				c0-0.3-0.1-0.6-0.3-0.8C105.3,25.7,105,25.6,104.7,25.6z"/>
			<path class="st10" d="M116,28v-3.8h0.3v1.5c0.1-0.2,0.3-0.3,0.5-0.4c0.2-0.1,0.4-0.1,0.6-0.1c0.4,0,0.7,0.1,1,0.4s0.4,0.6,0.4,1
				c0,0.4-0.1,0.7-0.4,1c-0.3,0.3-0.6,0.4-1,0.4c-0.2,0-0.4,0-0.6-0.1c-0.2-0.1-0.3-0.2-0.5-0.4V28H116z M117.4,27.7
				c0.2,0,0.4,0,0.5-0.1c0.2-0.1,0.3-0.2,0.4-0.4c0.1-0.2,0.1-0.4,0.1-0.5c0-0.2,0-0.4-0.1-0.5c-0.1-0.2-0.2-0.3-0.4-0.4
				c-0.2-0.1-0.3-0.1-0.5-0.1c-0.2,0-0.4,0-0.5,0.1c-0.2,0.1-0.3,0.2-0.4,0.4c-0.1,0.2-0.1,0.3-0.1,0.6c0,0.3,0.1,0.6,0.3,0.8
				C116.8,27.6,117.1,27.7,117.4,27.7z"/>
			<path class="st10" d="M123.1,25.3h0.4v0.4c0.1-0.2,0.2-0.3,0.3-0.3c0.1-0.1,0.2-0.1,0.4-0.1c0.1,0,0.2,0,0.3,0.1l-0.2,0.3
				c-0.1,0-0.1,0-0.2,0c-0.1,0-0.2,0-0.3,0.1c-0.1,0.1-0.2,0.2-0.2,0.4c0,0.2-0.1,0.5-0.1,0.9V28h-0.4V25.3z"/>
			<path class="st10" d="M131.3,25.3V28H131v-0.5c-0.1,0.2-0.3,0.3-0.5,0.4c-0.2,0.1-0.4,0.1-0.6,0.1c-0.4,0-0.7-0.1-1-0.4
				c-0.3-0.3-0.4-0.6-0.4-1c0-0.4,0.1-0.7,0.4-1c0.3-0.3,0.6-0.4,1-0.4c0.2,0,0.4,0,0.6,0.1c0.2,0.1,0.3,0.2,0.5,0.4v-0.5H131.3z
				 M129.9,25.6c-0.2,0-0.4,0-0.5,0.1c-0.2,0.1-0.3,0.2-0.4,0.4c-0.1,0.2-0.1,0.4-0.1,0.5c0,0.2,0,0.4,0.1,0.5
				c0.1,0.2,0.2,0.3,0.4,0.4c0.2,0.1,0.3,0.1,0.5,0.1c0.2,0,0.4,0,0.5-0.1c0.2-0.1,0.3-0.2,0.4-0.4c0.1-0.2,0.1-0.3,0.1-0.6
				c0-0.3-0.1-0.6-0.3-0.8C130.5,25.7,130.2,25.6,129.9,25.6z"/>
			<path class="st10" d="M135.9,25.3h0.3v0.5c0.1-0.2,0.3-0.3,0.5-0.4c0.2-0.1,0.4-0.1,0.6-0.1c0.2,0,0.4,0.1,0.5,0.2
				c0.2,0.1,0.3,0.2,0.3,0.4c0.1,0.2,0.1,0.4,0.1,0.8V28h-0.3v-1.3c0-0.3,0-0.5,0-0.6c0-0.2-0.1-0.3-0.2-0.4
				c-0.1-0.1-0.3-0.1-0.4-0.1c-0.2,0-0.4,0.1-0.6,0.2c-0.2,0.1-0.3,0.3-0.3,0.5c0,0.1,0,0.4,0,0.7v1h-0.3V25.3z"/>
			<path class="st10" d="M145.5,24.3V28h-0.3v-0.5c-0.1,0.2-0.3,0.3-0.5,0.4c-0.2,0.1-0.4,0.1-0.6,0.1c-0.4,0-0.7-0.1-1-0.4
				c-0.3-0.3-0.4-0.6-0.4-1c0-0.4,0.1-0.7,0.4-1c0.3-0.3,0.6-0.4,1-0.4c0.2,0,0.4,0,0.6,0.1c0.2,0.1,0.3,0.2,0.5,0.4v-1.5H145.5z
				 M144.1,25.6c-0.2,0-0.4,0-0.5,0.1c-0.2,0.1-0.3,0.2-0.4,0.4c-0.1,0.2-0.1,0.4-0.1,0.5c0,0.2,0,0.4,0.1,0.5
				c0.1,0.2,0.2,0.3,0.4,0.4c0.2,0.1,0.3,0.1,0.5,0.1c0.2,0,0.4,0,0.5-0.1c0.2-0.1,0.3-0.2,0.4-0.4c0.1-0.2,0.1-0.3,0.1-0.6
				c0-0.3-0.1-0.6-0.3-0.8C144.7,25.7,144.4,25.6,144.1,25.6z"/>
			<path class="st10" d="M156.7,25.6l-0.2,0.2c-0.2-0.2-0.4-0.3-0.5-0.3c-0.1,0-0.2,0-0.3,0.1c-0.1,0.1-0.1,0.2-0.1,0.3
				c0,0.1,0,0.2,0.1,0.3c0.1,0.1,0.2,0.2,0.4,0.3c0.3,0.1,0.4,0.3,0.5,0.4c0.1,0.1,0.1,0.3,0.1,0.4c0,0.2-0.1,0.4-0.2,0.6
				c-0.2,0.2-0.4,0.2-0.6,0.2c-0.2,0-0.3,0-0.4-0.1c-0.1-0.1-0.3-0.2-0.4-0.3l0.2-0.2c0.2,0.2,0.4,0.3,0.6,0.3c0.1,0,0.3,0,0.4-0.1
				c0.1-0.1,0.1-0.2,0.1-0.3c0-0.1,0-0.2-0.1-0.3c-0.1-0.1-0.2-0.2-0.4-0.3c-0.2-0.1-0.4-0.3-0.5-0.4c-0.1-0.1-0.1-0.3-0.1-0.4
				c0-0.2,0.1-0.4,0.2-0.5c0.1-0.1,0.3-0.2,0.5-0.2C156.2,25.2,156.5,25.4,156.7,25.6z"/>
			<path class="st10" d="M162.5,25.2c0.4,0,0.8,0.2,1,0.5c0.2,0.3,0.4,0.6,0.4,1c0,0.4-0.1,0.7-0.4,1c-0.3,0.3-0.6,0.4-1,0.4
				c-0.4,0-0.8-0.1-1-0.4c-0.3-0.3-0.4-0.6-0.4-1c0-0.4,0.1-0.7,0.4-1C161.7,25.4,162,25.2,162.5,25.2z M162.5,25.6
				c-0.3,0-0.5,0.1-0.7,0.3c-0.2,0.2-0.3,0.5-0.3,0.8c0,0.2,0,0.4,0.1,0.5c0.1,0.2,0.2,0.3,0.4,0.4c0.2,0.1,0.3,0.1,0.5,0.1
				s0.4,0,0.5-0.1c0.2-0.1,0.3-0.2,0.4-0.4c0.1-0.2,0.1-0.4,0.1-0.5c0-0.3-0.1-0.6-0.3-0.8C163,25.7,162.7,25.6,162.5,25.6z"/>
			<path class="st10" d="M168.3,24.3h0.3V28h-0.3V24.3z"/>
			<path class="st10" d="M173.1,25.3h0.3v1.3c0,0.3,0,0.5,0,0.6c0,0.2,0.1,0.3,0.3,0.4c0.1,0.1,0.3,0.1,0.5,0.1c0.2,0,0.4,0,0.5-0.1
				c0.1-0.1,0.2-0.2,0.3-0.4c0-0.1,0.1-0.3,0.1-0.7v-1.3h0.4v1.3c0,0.4,0,0.7-0.1,0.8c-0.1,0.2-0.2,0.3-0.4,0.4s-0.4,0.2-0.7,0.2
				c-0.3,0-0.5-0.1-0.7-0.2c-0.2-0.1-0.3-0.3-0.4-0.4s-0.1-0.5-0.1-0.9V25.3z"/>
			<path class="st10" d="M180.4,24.3h0.3v1h0.6v0.3h-0.6V28h-0.3v-2.4h-0.5v-0.3h0.5V24.3z"/>
			<path class="st10" d="M185.8,24.2c0.1,0,0.1,0,0.2,0.1c0.1,0.1,0.1,0.1,0.1,0.2c0,0.1,0,0.1-0.1,0.2c-0.1,0.1-0.1,0.1-0.2,0.1
				c-0.1,0-0.1,0-0.2-0.1c-0.1-0.1-0.1-0.1-0.1-0.2c0-0.1,0-0.1,0.1-0.2C185.6,24.2,185.7,24.2,185.8,24.2z M185.6,25.3h0.3V28h-0.3
				V25.3z"/>
			<path class="st10" d="M191.8,25.2c0.4,0,0.8,0.2,1,0.5c0.2,0.3,0.4,0.6,0.4,1c0,0.4-0.1,0.7-0.4,1c-0.3,0.3-0.6,0.4-1,0.4
				c-0.4,0-0.8-0.1-1-0.4c-0.3-0.3-0.4-0.6-0.4-1c0-0.4,0.1-0.7,0.4-1C191,25.4,191.3,25.2,191.8,25.2z M191.8,25.6
				c-0.3,0-0.5,0.1-0.7,0.3c-0.2,0.2-0.3,0.5-0.3,0.8c0,0.2,0,0.4,0.1,0.5c0.1,0.2,0.2,0.3,0.4,0.4c0.2,0.1,0.3,0.1,0.5,0.1
				c0.2,0,0.4,0,0.5-0.1c0.2-0.1,0.3-0.2,0.4-0.4c0.1-0.2,0.1-0.4,0.1-0.5c0-0.3-0.1-0.6-0.3-0.8C192.3,25.7,192.1,25.6,191.8,25.6z
				"/>
			<path class="st10" d="M197.6,25.3h0.3v0.5c0.1-0.2,0.3-0.3,0.5-0.4c0.2-0.1,0.4-0.1,0.6-0.1c0.2,0,0.4,0.1,0.5,0.2
				s0.3,0.2,0.3,0.4s0.1,0.4,0.1,0.8V28h-0.3v-1.3c0-0.3,0-0.5,0-0.6c0-0.2-0.1-0.3-0.2-0.4c-0.1-0.1-0.3-0.1-0.4-0.1
				c-0.2,0-0.4,0.1-0.6,0.2c-0.2,0.1-0.3,0.3-0.3,0.5c0,0.1,0,0.4,0,0.7v1h-0.3V25.3z"/>
		</g>
		<g>
			<path class="st10" d="M46.2,8h2.3c1.3,0,2.2,0.1,2.7,0.3c0.5,0.2,1,0.6,1.3,1.1c0.3,0.5,0.5,1.2,0.5,1.9c0,0.8-0.2,1.4-0.5,1.9
				c-0.4,0.5-0.9,0.9-1.6,1.2l2.7,5.1h-2.4l-2.6-4.9h-0.2v4.9h-2.2V8z M48.4,12.5h0.7c0.7,0,1.2-0.1,1.4-0.3
				c0.3-0.2,0.4-0.5,0.4-0.9c0-0.3-0.1-0.5-0.2-0.7c-0.1-0.2-0.3-0.3-0.5-0.4c-0.2-0.1-0.6-0.1-1.2-0.1h-0.6V12.5z"/>
			<path class="st10" d="M55.4,9.6h5.4v1.8h-3.5v1.8h3.5V15h-3.5v2.6h3.5v1.8h-5.4V9.6z"/>
			<path class="st10" d="M62.7,9.6h2.2c1.4,0,2.5,0.2,3.2,0.5c0.7,0.4,1.3,0.9,1.7,1.7c0.5,0.8,0.7,1.7,0.7,2.8
				c0,0.8-0.1,1.5-0.4,2.1c-0.3,0.6-0.6,1.2-1,1.6c-0.4,0.4-0.9,0.7-1.4,0.9c-0.5,0.2-1.4,0.2-2.7,0.2h-2.3V9.6z M64.5,11.4v6.2h0.9
				c0.9,0,1.5-0.1,1.9-0.3c0.4-0.2,0.7-0.5,0.9-1c0.2-0.5,0.4-1,0.4-1.7c0-1-0.3-1.9-0.9-2.4c-0.5-0.5-1.4-0.8-2.5-0.8H64.5z"/>
			<path class="st10" d="M71.7,8h2.2l1.7,7.3L77.6,8h1.8l2.1,7.3L83.2,8h2.2l-2.6,11.5h-2.1L78.5,12l-2.1,7.4h-2.1L71.7,8z"/>
			<path class="st10" d="M87,9.6h1.9v3.7h3.3V9.6h1.9v9.9h-1.9v-4.3h-3.3v4.3H87V9.6z"/>
			<path class="st10" d="M96.3,9.6h1.9v9.9h-1.9V9.6z"/>
			<path class="st10" d="M99.5,9.6h5.5v1.9h-1.8v8h-1.9v-8h-1.8V9.6z"/>
			<path class="st10" d="M106.4,9.6h5.4v1.8h-3.5v1.8h3.5V15h-3.5v2.6h3.5v1.8h-5.4V9.6z"/>
		</g>
		<g>
			<path class="st10" d="M131.1,19.5l-6.4-8.7c0,0.2,0,0.4,0,0.6c0,0.2,0,0.4,0,0.6c0,0.2,0,0.4,0,0.6v6.9h-0.9V9.6h1.1l6.5,8.7
				c0-0.2,0-0.4,0-0.6c0-0.2,0-0.4,0-0.6c0-0.2,0-0.5,0-0.7V9.6h0.9v9.9H131.1z"/>
			<path class="st10" d="M143.7,14.5c0,0.8-0.1,1.5-0.4,2.2c-0.2,0.6-0.6,1.1-1,1.6c-0.4,0.4-0.9,0.7-1.5,1
				c-0.6,0.2-1.2,0.3-1.9,0.3h-3.6V9.6h3.1c0.8,0,1.5,0.1,2.1,0.3c0.6,0.2,1.2,0.5,1.7,0.9c0.5,0.4,0.8,0.9,1.1,1.5
				C143.6,12.9,143.7,13.6,143.7,14.5z M142.7,14.5c0-0.7-0.1-1.3-0.3-1.8c-0.2-0.5-0.5-0.9-0.9-1.2c-0.4-0.3-0.8-0.6-1.3-0.7
				c-0.5-0.1-1.1-0.2-1.7-0.2h-2.1v8.2h2.4c0.6,0,1.1-0.1,1.6-0.3c0.5-0.2,0.9-0.4,1.2-0.8c0.3-0.4,0.6-0.8,0.8-1.3
				C142.6,15.8,142.7,15.1,142.7,14.5z"/>
			<path class="st10" d="M155.1,14.5c0,0.8-0.1,1.5-0.3,2.1c-0.2,0.6-0.5,1.2-0.9,1.6c-0.4,0.4-0.9,0.8-1.5,1
				c-0.6,0.2-1.2,0.4-2,0.4c-0.8,0-1.4-0.1-2-0.4c-0.6-0.3-1.1-0.6-1.5-1.1c-0.4-0.5-0.7-1-0.9-1.6c-0.2-0.6-0.3-1.3-0.3-2.1
				c0-0.8,0.1-1.5,0.3-2.1c0.2-0.6,0.5-1.1,0.9-1.6c0.4-0.4,0.9-0.8,1.5-1c0.6-0.2,1.2-0.4,2-0.4c0.7,0,1.4,0.1,2,0.4
				c0.6,0.2,1.1,0.6,1.5,1c0.4,0.4,0.7,1,0.9,1.6C155,13.1,155.1,13.8,155.1,14.5z M154.1,14.5c0-0.6-0.1-1.2-0.2-1.7
				c-0.2-0.5-0.4-1-0.7-1.3c-0.3-0.4-0.7-0.6-1.1-0.8c-0.4-0.2-1-0.3-1.6-0.3c-0.6,0-1.1,0.1-1.6,0.3c-0.5,0.2-0.8,0.5-1.1,0.8
				c-0.3,0.4-0.5,0.8-0.7,1.3c-0.2,0.5-0.2,1.1-0.2,1.7c0,0.6,0.1,1.2,0.2,1.7c0.2,0.5,0.4,1,0.7,1.4c0.3,0.4,0.7,0.7,1.1,0.9
				c0.4,0.2,1,0.3,1.6,0.3c0.6,0,1.2-0.1,1.6-0.3c0.5-0.2,0.8-0.5,1.1-0.9s0.5-0.8,0.7-1.4C154,15.7,154.1,15.1,154.1,14.5z"/>
			<path class="st10" d="M165,19.5l-6.4-8.7c0,0.2,0,0.4,0,0.6c0,0.2,0,0.4,0,0.6c0,0.2,0,0.4,0,0.6v6.9h-0.9V9.6h1.1l6.5,8.7
				c0-0.2,0-0.4,0-0.6c0-0.2,0-0.4,0-0.6c0-0.2,0-0.5,0-0.7V9.6h0.9v9.9H165z"/>
			<path class="st10" d="M169.2,19.5V9.6h6.5v0.8h-5.5V14h5.1v0.8h-5.1v3.8h5.8v0.8H169.2z"/>
			<path class="st10" d="M185.4,16.8c0,0.4-0.1,0.8-0.2,1.1c-0.2,0.3-0.4,0.6-0.7,0.9c-0.3,0.3-0.7,0.4-1.2,0.6
				c-0.5,0.1-1,0.2-1.6,0.2c-1.1,0-2-0.2-2.6-0.6c-0.6-0.4-1-1-1.2-1.8l1-0.2c0.1,0.3,0.2,0.5,0.3,0.7c0.1,0.2,0.3,0.4,0.5,0.6
				c0.2,0.2,0.5,0.3,0.8,0.4c0.3,0.1,0.7,0.1,1.2,0.1c0.4,0,0.7,0,1.1-0.1c0.3-0.1,0.6-0.2,0.9-0.3c0.2-0.2,0.4-0.4,0.6-0.6
				c0.1-0.2,0.2-0.5,0.2-0.9c0-0.4-0.1-0.7-0.3-0.9c-0.2-0.2-0.4-0.4-0.7-0.6c-0.3-0.1-0.6-0.3-1-0.4c-0.4-0.1-0.7-0.2-1.1-0.3
				c-0.3-0.1-0.5-0.1-0.8-0.2c-0.3-0.1-0.5-0.2-0.7-0.3c-0.2-0.1-0.4-0.2-0.7-0.3c-0.2-0.1-0.4-0.3-0.5-0.5
				c-0.2-0.2-0.3-0.4-0.4-0.6s-0.1-0.5-0.1-0.8c0-0.5,0.1-0.8,0.3-1.2c0.2-0.3,0.4-0.6,0.7-0.8c0.3-0.2,0.7-0.4,1.1-0.5
				c0.4-0.1,0.9-0.1,1.4-0.1c0.6,0,1,0,1.4,0.1c0.4,0.1,0.7,0.2,1,0.4c0.3,0.2,0.5,0.4,0.7,0.7c0.2,0.3,0.3,0.6,0.4,0.9l-1,0.2
				c-0.1-0.3-0.1-0.5-0.3-0.7c-0.1-0.2-0.3-0.4-0.5-0.5c-0.2-0.1-0.4-0.2-0.7-0.3s-0.6-0.1-1-0.1c-0.4,0-0.8,0-1.1,0.1
				c-0.3,0.1-0.6,0.2-0.7,0.4c-0.2,0.2-0.3,0.3-0.4,0.6c-0.1,0.2-0.1,0.4-0.1,0.7c0,0.3,0.1,0.6,0.2,0.8c0.1,0.2,0.3,0.4,0.6,0.5
				s0.5,0.3,0.8,0.4c0.3,0.1,0.7,0.2,1,0.3c0.3,0.1,0.6,0.1,0.8,0.2c0.3,0.1,0.5,0.2,0.8,0.3c0.3,0.1,0.5,0.2,0.7,0.3
				c0.2,0.1,0.4,0.3,0.6,0.5s0.3,0.4,0.4,0.7C185.4,16.2,185.4,16.5,185.4,16.8z"/>
			<path class="st10" d="M188,19.5V9.6h1v9.9H188z"/>
			<path class="st10" d="M198.5,19.5l-1.2-3.1h-4.4l-1.2,3.1h-1.1l3.8-9.9h1.2l3.8,9.9H198.5z M195.8,12.2c-0.1-0.2-0.2-0.4-0.2-0.6
				c-0.1-0.2-0.1-0.4-0.2-0.5c-0.1-0.2-0.1-0.3-0.1-0.4c0-0.1-0.1-0.2-0.1-0.2c0,0,0,0.1-0.1,0.2c0,0.1-0.1,0.2-0.1,0.4
				c-0.1,0.2-0.1,0.3-0.2,0.5c-0.1,0.2-0.1,0.4-0.2,0.6l-1.3,3.5h3.9L195.8,12.2z"/>
		</g>
		<g>
			<path class="st10" d="M119.5,9.6h1.1v9.8h-1.1v-8.1h-1.1L119.5,9.6z"/>
		</g>
	</g>
</g>
</svg>
