<?xml version="1.0" encoding="utf-8"?>
<!-- Generator: Adobe Illustrator 26.0.0, SVG Export Plug-In . SVG Version: 6.00 Build 0)  -->
<svg version="1.1" id="Layer_1" xmlns="http://www.w3.org/2000/svg" xmlns:xlink="http://www.w3.org/1999/xlink" x="0px" y="0px"
	 viewBox="0 0 200 36" style="enable-background:new 0 0 200 36;" xml:space="preserve">
<style type="text/css">
	.st0{fill:url(#SVGID_1_);}
	.st1{fill:url(#SVGID_00000036249032293877397130000008490484891744413578_);}
	.st2{fill:none;}
	.st3{fill:url(#SVGID_00000147200280090091112560000005540781377091215265_);}
	.st4{fill:url(#SVGID_00000177445588267646479550000007538571366759431810_);}
	.st5{fill:#FFFFFF;}
	.st6{fill:url(#SVGID_00000174602944389596044400000013806057480048072582_);}
	.st7{fill:url(#SVGID_00000162321220408464192240000014476299712273256594_);}
	.st8{fill:url(#SVGID_00000173881182685088772280000015559164780186181248_);}
	.st9{fill:url(#SVGID_00000028314521672224503080000014297251389239201963_);}
	.st10{fill:#404041;}
</style>
<g>
	<g>
		<g>
			<radialGradient id="SVGID_1_" cx="11.7086" cy="15.9626" r="11.7329" gradientUnits="userSpaceOnUse">
				<stop  offset="0" style="stop-color:#FFFFFF"/>
				<stop  offset="0.7818" style="stop-color:#E5E5E5"/>
				<stop  offset="1" style="stop-color:#B8BABC"/>
			</radialGradient>
			<path class="st0" d="M4.5,7.7c-5.5,4.7-6.1,12.9-1.4,18.4c0.5,0.6,1.1,1.1,1.6,1.6C1.4,23.6,1.9,17.5,6,14
				c3.3-2.8,5.9-2.4,9.8,0.4c0,0,3.7,2.8,6.5,0c2.9-3-0.9-7-0.9-7c-2.1-2-4.5-3-7.1-3.2C11,4,7.5,5.2,4.5,7.7"/>
		</g>
		<g>
			
				<radialGradient id="SVGID_00000132767543319195863880000014680613387683180167_" cx="15.5104" cy="24.234" r="11.7276" gradientUnits="userSpaceOnUse">
				<stop  offset="0" style="stop-color:#720000"/>
				<stop  offset="0.7394" style="stop-color:#971115"/>
				<stop  offset="1" style="stop-color:#BA2228"/>
			</radialGradient>
			<path style="fill:url(#SVGID_00000132767543319195863880000014680613387683180167_);" d="M6.9,14.6c-4.5,4.8-4,11.8,0.4,16.9
				c4.7,5.4,13,6,18.4,1.2c0.6-0.5,1.1-1.1,1.6-1.7c-4.1,3.4-10.2,3-13.7-1.1c-2.9-3.3-2.4-5.9,0.3-9.8c0,0,2.8-3.3,0.1-6.4
				c-0.7-0.8-1.9-1.1-2.7-1.2C9,12.4,6.9,14.6,6.9,14.6"/>
		</g>
		<path class="st2" d="M9.5,4C9,4.6,8.5,5.2,8,5.8c3.9-3.7,10-3.6,13.8,0.2c3.1,3.1,2.8,5.7,0.3,9.8c0,0-2.5,3.6,0.5,6.5
			c2.9,2.9,6.9-1.4,6.9-1.4c4.2-5.1,3.2-12-1.6-16.8c-2.5-2.5-5.9-3.8-9.2-3.8C15.4,0.2,12.1,1.5,9.5,4"/>
		<g>
			
				<radialGradient id="SVGID_00000116203882528746195340000009996896727997340290_" cx="24.2315" cy="20.1734" r="11.7162" gradientUnits="userSpaceOnUse">
				<stop  offset="0" style="stop-color:#FFFFFF"/>
				<stop  offset="0.7818" style="stop-color:#E5E5E5"/>
				<stop  offset="1" style="stop-color:#B8BABC"/>
			</radialGradient>
			<path style="fill:url(#SVGID_00000116203882528746195340000009996896727997340290_);" d="M29.9,22.1c-3.3,2.8-5.9,2.4-9.8-0.4
				c0,0-3.8-3.1-6.5,0c-2.8,3.1,0.9,7,0.9,7c4.8,4.6,11.7,4.1,16.9-0.3c5.5-4.7,6.1-12.9,1.4-18.4c-0.5-0.6-1.1-1.1-1.6-1.6
				C34.5,12.5,34,18.6,29.9,22.1"/>
		</g>
		<g>
			
				<radialGradient id="SVGID_00000120530667495559248410000001488700102974086551_" cx="20.3944" cy="11.7504" r="11.7428" gradientUnits="userSpaceOnUse">
				<stop  offset="0" style="stop-color:#720000"/>
				<stop  offset="0.7394" style="stop-color:#971115"/>
				<stop  offset="1" style="stop-color:#BA2228"/>
			</radialGradient>
			<path style="fill:url(#SVGID_00000120530667495559248410000001488700102974086551_);" d="M10.1,3.4C9.5,3.9,9,4.5,8.6,5.1
				C12.6,1.6,18.7,2,22.3,6c2.9,3.2,2.5,5.8-0.2,9.8c0,0-3,3.8,0.1,6.5c3.2,2.8,6.9-1,6.9-1c4.5-4.9,3.9-11.8-0.6-16.9
				c-2.4-2.7-5.7-4.1-9-4.3C16.2-0.1,12.8,1,10.1,3.4"/>
		</g>
	</g>
	<g>
		<g>
			<path class="st5" d="M46.5,24.3c0.1,0,0.1,0,0.2,0.1s0.1,0.1,0.1,0.2c0,0.1,0,0.1-0.1,0.2c-0.1,0.1-0.1,0.1-0.2,0.1
				c-0.1,0-0.1,0-0.2-0.1c-0.1-0.1-0.1-0.1-0.1-0.2c0-0.1,0-0.1,0.1-0.2C46.4,24.3,46.4,24.3,46.5,24.3z M46.3,25.4h0.3v2.7h-0.3
				V25.4z"/>
			<path class="st5" d="M51.2,25.4h0.3v0.5c0.1-0.2,0.3-0.3,0.5-0.4c0.2-0.1,0.4-0.1,0.6-0.1c0.2,0,0.4,0.1,0.5,0.2
				c0.2,0.1,0.3,0.2,0.3,0.4s0.1,0.4,0.1,0.8v1.4h-0.3v-1.3c0-0.3,0-0.5,0-0.6c0-0.2-0.1-0.3-0.2-0.4c-0.1-0.1-0.3-0.1-0.4-0.1
				c-0.2,0-0.4,0.1-0.6,0.2c-0.2,0.1-0.3,0.3-0.3,0.5c0,0.1,0,0.4,0,0.7v1h-0.3V25.4z"/>
			<path class="st5" d="M58.5,24.4h0.3v1h0.6v0.3h-0.6v2.4h-0.3v-2.4H58v-0.3h0.5V24.4z"/>
			<path class="st5" d="M66,27.2l0.3,0.2c-0.1,0.2-0.2,0.3-0.3,0.5c-0.1,0.1-0.3,0.2-0.4,0.3s-0.3,0.1-0.5,0.1c-0.4,0-0.8-0.1-1-0.4
				c-0.2-0.3-0.4-0.6-0.4-1c0-0.3,0.1-0.6,0.3-0.9c0.3-0.3,0.6-0.5,1.1-0.5c0.5,0,0.8,0.2,1.1,0.5c0.2,0.2,0.3,0.6,0.3,0.9h-2.4
				c0,0.3,0.1,0.6,0.3,0.8c0.2,0.2,0.4,0.3,0.7,0.3c0.1,0,0.3,0,0.4-0.1c0.1,0,0.2-0.1,0.3-0.2C65.8,27.5,65.9,27.4,66,27.2z
				 M66,26.5c0-0.2-0.1-0.3-0.2-0.4c-0.1-0.1-0.2-0.2-0.4-0.3c-0.1-0.1-0.3-0.1-0.5-0.1c-0.3,0-0.5,0.1-0.7,0.3
				C64.1,26,64,26.2,64,26.5H66z"/>
			<path class="st5" d="M73.2,25.4h0.3v2.2c0,0.4,0,0.7-0.1,0.8c-0.1,0.2-0.2,0.4-0.5,0.6c-0.2,0.1-0.5,0.2-0.8,0.2
				c-0.2,0-0.4,0-0.6-0.1c-0.2-0.1-0.3-0.2-0.5-0.3s-0.2-0.3-0.3-0.5h0.4c0.1,0.2,0.2,0.3,0.4,0.4c0.2,0.1,0.4,0.1,0.6,0.1
				c0.2,0,0.4,0,0.6-0.1s0.3-0.2,0.3-0.3c0.1-0.1,0.1-0.4,0.1-0.6v-0.1c-0.1,0.2-0.3,0.3-0.5,0.4c-0.2,0.1-0.4,0.1-0.6,0.1
				c-0.2,0-0.5-0.1-0.7-0.2c-0.2-0.1-0.4-0.3-0.5-0.5c-0.1-0.2-0.2-0.4-0.2-0.7c0-0.3,0.1-0.5,0.2-0.7c0.1-0.2,0.3-0.4,0.5-0.5
				c0.2-0.1,0.5-0.2,0.7-0.2c0.2,0,0.4,0,0.6,0.1c0.2,0.1,0.3,0.2,0.5,0.4V25.4z M72.1,25.7c-0.2,0-0.4,0-0.5,0.1
				c-0.2,0.1-0.3,0.2-0.4,0.4c-0.1,0.2-0.1,0.4-0.1,0.5c0,0.3,0.1,0.5,0.3,0.7c0.2,0.2,0.5,0.3,0.8,0.3c0.3,0,0.6-0.1,0.8-0.3
				c0.2-0.2,0.3-0.4,0.3-0.8c0-0.2,0-0.4-0.1-0.5c-0.1-0.2-0.2-0.3-0.4-0.4C72.5,25.7,72.3,25.7,72.1,25.7z"/>
			<path class="st5" d="M78,25.4h0.4v0.4c0.1-0.2,0.2-0.3,0.3-0.3c0.1-0.1,0.2-0.1,0.4-0.1c0.1,0,0.2,0,0.3,0.1l-0.2,0.3
				c-0.1,0-0.1,0-0.2,0c-0.1,0-0.2,0-0.3,0.1c-0.1,0.1-0.2,0.2-0.2,0.4c0,0.2-0.1,0.5-0.1,0.9v0.9H78V25.4z"/>
			<path class="st5" d="M86.1,25.4v2.7h-0.3v-0.5c-0.1,0.2-0.3,0.3-0.5,0.4c-0.2,0.1-0.4,0.1-0.6,0.1c-0.4,0-0.7-0.1-1-0.4
				s-0.4-0.6-0.4-1c0-0.4,0.1-0.7,0.4-1s0.6-0.4,1-0.4c0.2,0,0.4,0,0.6,0.1c0.2,0.1,0.3,0.2,0.5,0.4v-0.5H86.1z M84.7,25.7
				c-0.2,0-0.4,0-0.5,0.1c-0.2,0.1-0.3,0.2-0.4,0.4c-0.1,0.2-0.1,0.4-0.1,0.5c0,0.2,0,0.4,0.1,0.5c0.1,0.2,0.2,0.3,0.4,0.4
				c0.2,0.1,0.3,0.1,0.5,0.1c0.2,0,0.4,0,0.5-0.1c0.2-0.1,0.3-0.2,0.4-0.4s0.1-0.3,0.1-0.6c0-0.3-0.1-0.6-0.3-0.8
				C85.3,25.8,85,25.7,84.7,25.7z"/>
			<path class="st5" d="M91,24.4h0.3v1h0.6v0.3h-0.6v2.4H91v-2.4h-0.5v-0.3H91V24.4z"/>
			<path class="st5" d="M98.6,27.2l0.3,0.2c-0.1,0.2-0.2,0.3-0.3,0.5c-0.1,0.1-0.3,0.2-0.4,0.3c-0.2,0.1-0.3,0.1-0.5,0.1
				c-0.4,0-0.8-0.1-1-0.4c-0.2-0.3-0.4-0.6-0.4-1c0-0.3,0.1-0.6,0.3-0.9c0.3-0.3,0.6-0.5,1.1-0.5c0.5,0,0.8,0.2,1.1,0.5
				c0.2,0.2,0.3,0.6,0.3,0.9h-2.4c0,0.3,0.1,0.6,0.3,0.8c0.2,0.2,0.4,0.3,0.7,0.3c0.1,0,0.3,0,0.4-0.1c0.1,0,0.2-0.1,0.3-0.2
				C98.4,27.5,98.5,27.4,98.6,27.2z M98.6,26.5c0-0.2-0.1-0.3-0.2-0.4c-0.1-0.1-0.2-0.2-0.4-0.3c-0.1-0.1-0.3-0.1-0.5-0.1
				c-0.3,0-0.5,0.1-0.7,0.3c-0.1,0.1-0.2,0.3-0.3,0.6H98.6z"/>
			<path class="st5" d="M106.1,24.4v3.8h-0.3v-0.5c-0.1,0.2-0.3,0.3-0.5,0.4c-0.2,0.1-0.4,0.1-0.6,0.1c-0.4,0-0.7-0.1-1-0.4
				s-0.4-0.6-0.4-1c0-0.4,0.1-0.7,0.4-1c0.3-0.3,0.6-0.4,1-0.4c0.2,0,0.4,0,0.6,0.1c0.2,0.1,0.3,0.2,0.5,0.4v-1.5H106.1z
				 M104.7,25.7c-0.2,0-0.4,0-0.5,0.1c-0.2,0.1-0.3,0.2-0.4,0.4c-0.1,0.2-0.1,0.4-0.1,0.5c0,0.2,0,0.4,0.1,0.5
				c0.1,0.2,0.2,0.3,0.4,0.4c0.2,0.1,0.3,0.1,0.5,0.1c0.2,0,0.4,0,0.5-0.1c0.2-0.1,0.3-0.2,0.4-0.4c0.1-0.2,0.1-0.3,0.1-0.6
				c0-0.3-0.1-0.6-0.3-0.8C105.3,25.8,105,25.7,104.7,25.7z"/>
			<path class="st5" d="M116,28.1v-3.8h0.3v1.5c0.1-0.2,0.3-0.3,0.5-0.4c0.2-0.1,0.4-0.1,0.6-0.1c0.4,0,0.7,0.1,1,0.4
				c0.3,0.3,0.4,0.6,0.4,1c0,0.4-0.1,0.7-0.4,1c-0.3,0.3-0.6,0.4-1,0.4c-0.2,0-0.4,0-0.6-0.1c-0.2-0.1-0.3-0.2-0.5-0.4v0.5H116z
				 M117.4,27.8c0.2,0,0.4,0,0.5-0.1c0.2-0.1,0.3-0.2,0.4-0.4c0.1-0.2,0.1-0.4,0.1-0.5c0-0.2,0-0.4-0.1-0.5s-0.2-0.3-0.4-0.4
				c-0.2-0.1-0.3-0.1-0.5-0.1c-0.2,0-0.4,0-0.5,0.1c-0.2,0.1-0.3,0.2-0.4,0.4c-0.1,0.2-0.1,0.3-0.1,0.6c0,0.3,0.1,0.6,0.3,0.8
				C116.8,27.7,117.1,27.8,117.4,27.8z"/>
			<path class="st5" d="M123.1,25.4h0.4v0.4c0.1-0.2,0.2-0.3,0.3-0.3c0.1-0.1,0.2-0.1,0.4-0.1c0.1,0,0.2,0,0.3,0.1l-0.2,0.3
				c-0.1,0-0.1,0-0.2,0c-0.1,0-0.2,0-0.3,0.1c-0.1,0.1-0.2,0.2-0.2,0.4c0,0.2-0.1,0.5-0.1,0.9v0.9h-0.4V25.4z"/>
			<path class="st5" d="M131.3,25.4v2.7H131v-0.5c-0.1,0.2-0.3,0.3-0.5,0.4c-0.2,0.1-0.4,0.1-0.6,0.1c-0.4,0-0.7-0.1-1-0.4
				c-0.3-0.3-0.4-0.6-0.4-1c0-0.4,0.1-0.7,0.4-1c0.3-0.3,0.6-0.4,1-0.4c0.2,0,0.4,0,0.6,0.1c0.2,0.1,0.3,0.2,0.5,0.4v-0.5H131.3z
				 M129.9,25.7c-0.2,0-0.4,0-0.5,0.1c-0.2,0.1-0.3,0.2-0.4,0.4c-0.1,0.2-0.1,0.4-0.1,0.5c0,0.2,0,0.4,0.1,0.5
				c0.1,0.2,0.2,0.3,0.4,0.4c0.2,0.1,0.3,0.1,0.5,0.1c0.2,0,0.4,0,0.5-0.1c0.2-0.1,0.3-0.2,0.4-0.4c0.1-0.2,0.1-0.3,0.1-0.6
				c0-0.3-0.1-0.6-0.3-0.8C130.5,25.8,130.2,25.7,129.9,25.7z"/>
			<path class="st5" d="M135.9,25.4h0.3v0.5c0.1-0.2,0.3-0.3,0.5-0.4c0.2-0.1,0.4-0.1,0.6-0.1c0.2,0,0.4,0.1,0.5,0.2
				c0.2,0.1,0.3,0.2,0.3,0.4c0.1,0.2,0.1,0.4,0.1,0.8v1.4h-0.3v-1.3c0-0.3,0-0.5,0-0.6c0-0.2-0.1-0.3-0.2-0.4
				c-0.1-0.1-0.3-0.1-0.4-0.1c-0.2,0-0.4,0.1-0.6,0.2c-0.2,0.1-0.3,0.3-0.3,0.5c0,0.1,0,0.4,0,0.7v1h-0.3V25.4z"/>
			<path class="st5" d="M145.5,24.4v3.8h-0.3v-0.5c-0.1,0.2-0.3,0.3-0.5,0.4c-0.2,0.1-0.4,0.1-0.6,0.1c-0.4,0-0.7-0.1-1-0.4
				c-0.3-0.3-0.4-0.6-0.4-1c0-0.4,0.1-0.7,0.4-1c0.3-0.3,0.6-0.4,1-0.4c0.2,0,0.4,0,0.6,0.1c0.2,0.1,0.3,0.2,0.5,0.4v-1.5H145.5z
				 M144.1,25.7c-0.2,0-0.4,0-0.5,0.1c-0.2,0.1-0.3,0.2-0.4,0.4c-0.1,0.2-0.1,0.4-0.1,0.5c0,0.2,0,0.4,0.1,0.5
				c0.1,0.2,0.2,0.3,0.4,0.4c0.2,0.1,0.3,0.1,0.5,0.1c0.2,0,0.4,0,0.5-0.1c0.2-0.1,0.3-0.2,0.4-0.4c0.1-0.2,0.1-0.3,0.1-0.6
				c0-0.3-0.1-0.6-0.3-0.8C144.7,25.8,144.4,25.7,144.1,25.7z"/>
			<path class="st5" d="M156.7,25.7l-0.2,0.2c-0.2-0.2-0.4-0.3-0.5-0.3c-0.1,0-0.2,0-0.3,0.1c-0.1,0.1-0.1,0.2-0.1,0.3
				c0,0.1,0,0.2,0.1,0.3c0.1,0.1,0.2,0.2,0.4,0.3c0.3,0.1,0.4,0.3,0.5,0.4c0.1,0.1,0.1,0.3,0.1,0.4c0,0.2-0.1,0.4-0.2,0.6
				c-0.2,0.2-0.4,0.2-0.6,0.2c-0.2,0-0.3,0-0.4-0.1c-0.1-0.1-0.3-0.2-0.4-0.3l0.2-0.2c0.2,0.2,0.4,0.3,0.6,0.3c0.1,0,0.3,0,0.4-0.1
				c0.1-0.1,0.1-0.2,0.1-0.3c0-0.1,0-0.2-0.1-0.3c-0.1-0.1-0.2-0.2-0.4-0.3c-0.2-0.1-0.4-0.3-0.5-0.4c-0.1-0.1-0.1-0.3-0.1-0.4
				c0-0.2,0.1-0.4,0.2-0.5c0.1-0.1,0.3-0.2,0.5-0.2C156.2,25.3,156.5,25.5,156.7,25.7z"/>
			<path class="st5" d="M162.5,25.3c0.4,0,0.8,0.2,1,0.5c0.2,0.3,0.4,0.6,0.4,1c0,0.4-0.1,0.7-0.4,1c-0.3,0.3-0.6,0.4-1,0.4
				c-0.4,0-0.8-0.1-1-0.4c-0.3-0.3-0.4-0.6-0.4-1c0-0.4,0.1-0.7,0.4-1C161.7,25.5,162,25.3,162.5,25.3z M162.5,25.7
				c-0.3,0-0.5,0.1-0.7,0.3c-0.2,0.2-0.3,0.5-0.3,0.8c0,0.2,0,0.4,0.1,0.5s0.2,0.3,0.4,0.4c0.2,0.1,0.3,0.1,0.5,0.1s0.4,0,0.5-0.1
				c0.2-0.1,0.3-0.2,0.4-0.4c0.1-0.2,0.1-0.4,0.1-0.5c0-0.3-0.1-0.6-0.3-0.8C163,25.8,162.7,25.7,162.5,25.7z"/>
			<path class="st5" d="M168.3,24.4h0.3v3.8h-0.3V24.4z"/>
			<path class="st5" d="M173.1,25.4h0.3v1.3c0,0.3,0,0.5,0,0.6c0,0.2,0.1,0.3,0.3,0.4c0.1,0.1,0.3,0.1,0.5,0.1c0.2,0,0.4,0,0.5-0.1
				c0.1-0.1,0.2-0.2,0.3-0.4c0-0.1,0.1-0.3,0.1-0.7v-1.3h0.4v1.3c0,0.4,0,0.7-0.1,0.8c-0.1,0.2-0.2,0.3-0.4,0.4s-0.4,0.2-0.7,0.2
				c-0.3,0-0.5-0.1-0.7-0.2c-0.2-0.1-0.3-0.3-0.4-0.4c-0.1-0.2-0.1-0.5-0.1-0.9V25.4z"/>
			<path class="st5" d="M180.4,24.4h0.3v1h0.6v0.3h-0.6v2.4h-0.3v-2.4h-0.5v-0.3h0.5V24.4z"/>
			<path class="st5" d="M185.8,24.3c0.1,0,0.1,0,0.2,0.1c0.1,0.1,0.1,0.1,0.1,0.2c0,0.1,0,0.1-0.1,0.2c-0.1,0.1-0.1,0.1-0.2,0.1
				c-0.1,0-0.1,0-0.2-0.1c-0.1-0.1-0.1-0.1-0.1-0.2c0-0.1,0-0.1,0.1-0.2C185.6,24.3,185.7,24.3,185.8,24.3z M185.6,25.4h0.3v2.7
				h-0.3V25.4z"/>
			<path class="st5" d="M191.8,25.3c0.4,0,0.8,0.2,1,0.5c0.2,0.3,0.4,0.6,0.4,1c0,0.4-0.1,0.7-0.4,1c-0.3,0.3-0.6,0.4-1,0.4
				c-0.4,0-0.8-0.1-1-0.4c-0.3-0.3-0.4-0.6-0.4-1c0-0.4,0.1-0.7,0.4-1C191,25.5,191.3,25.3,191.8,25.3z M191.8,25.7
				c-0.3,0-0.5,0.1-0.7,0.3c-0.2,0.2-0.3,0.5-0.3,0.8c0,0.2,0,0.4,0.1,0.5s0.2,0.3,0.4,0.4c0.2,0.1,0.3,0.1,0.5,0.1
				c0.2,0,0.4,0,0.5-0.1c0.2-0.1,0.3-0.2,0.4-0.4s0.1-0.4,0.1-0.5c0-0.3-0.1-0.6-0.3-0.8C192.3,25.8,192.1,25.7,191.8,25.7z"/>
			<path class="st5" d="M197.6,25.4h0.3v0.5c0.1-0.2,0.3-0.3,0.5-0.4c0.2-0.1,0.4-0.1,0.6-0.1c0.2,0,0.4,0.1,0.5,0.2
				s0.3,0.2,0.3,0.4s0.1,0.4,0.1,0.8v1.4h-0.3v-1.3c0-0.3,0-0.5,0-0.6c0-0.2-0.1-0.3-0.2-0.4c-0.1-0.1-0.3-0.1-0.4-0.1
				c-0.2,0-0.4,0.1-0.6,0.2c-0.2,0.1-0.3,0.3-0.3,0.5c0,0.1,0,0.4,0,0.7v1h-0.3V25.4z"/>
		</g>
		<g>
			<path class="st5" d="M46.2,8.1h2.3c1.3,0,2.2,0.1,2.7,0.3c0.5,0.2,1,0.6,1.3,1.1c0.3,0.5,0.5,1.2,0.5,1.9c0,0.8-0.2,1.4-0.5,1.9
				c-0.4,0.5-0.9,0.9-1.6,1.2l2.7,5.1h-2.4l-2.6-4.9h-0.2v4.9h-2.2V8.1z M48.4,12.6h0.7c0.7,0,1.2-0.1,1.4-0.3
				c0.3-0.2,0.4-0.5,0.4-0.9c0-0.3-0.1-0.5-0.2-0.7c-0.1-0.2-0.3-0.3-0.5-0.4c-0.2-0.1-0.6-0.1-1.2-0.1h-0.6V12.6z"/>
			<path class="st5" d="M55.4,9.7h5.4v1.8h-3.5v1.8h3.5v1.8h-3.5v2.6h3.5v1.8h-5.4V9.7z"/>
			<path class="st5" d="M62.7,9.7h2.2c1.4,0,2.5,0.2,3.2,0.5c0.7,0.4,1.3,0.9,1.7,1.7c0.5,0.8,0.7,1.7,0.7,2.8
				c0,0.8-0.1,1.5-0.4,2.1c-0.3,0.6-0.6,1.2-1,1.6c-0.4,0.4-0.9,0.7-1.4,0.9c-0.5,0.2-1.4,0.2-2.7,0.2h-2.3V9.7z M64.5,11.5v6.2h0.9
				c0.9,0,1.5-0.1,1.9-0.3c0.4-0.2,0.7-0.5,0.9-1c0.2-0.5,0.4-1,0.4-1.7c0-1-0.3-1.9-0.9-2.4c-0.5-0.5-1.4-0.8-2.5-0.8H64.5z"/>
			<path class="st5" d="M71.7,8.1h2.2l1.7,7.3l2.1-7.3h1.8l2.1,7.3l1.6-7.3h2.2l-2.6,11.5h-2.1l-2.1-7.4l-2.1,7.4h-2.1L71.7,8.1z"/>
			<path class="st5" d="M87,9.7h1.9v3.7h3.3V9.7h1.9v9.9h-1.9v-4.3h-3.3v4.3H87V9.7z"/>
			<path class="st5" d="M96.3,9.7h1.9v9.9h-1.9V9.7z"/>
			<path class="st5" d="M99.5,9.7h5.5v1.9h-1.8v8h-1.9v-8h-1.8V9.7z"/>
			<path class="st5" d="M106.4,9.7h5.4v1.8h-3.5v1.8h3.5v1.8h-3.5v2.6h3.5v1.8h-5.4V9.7z"/>
		</g>
		<g>
			<path class="st5" d="M131.1,19.6l-6.4-8.7c0,0.2,0,0.4,0,0.6c0,0.2,0,0.4,0,0.6s0,0.4,0,0.6v6.9h-0.9V9.7h1.1l6.5,8.7
				c0-0.2,0-0.4,0-0.6c0-0.2,0-0.4,0-0.6c0-0.2,0-0.5,0-0.7V9.7h0.9v9.9H131.1z"/>
			<path class="st5" d="M143.7,14.6c0,0.8-0.1,1.5-0.4,2.2c-0.2,0.6-0.6,1.1-1,1.6c-0.4,0.4-0.9,0.7-1.5,1c-0.6,0.2-1.2,0.3-1.9,0.3
				h-3.6V9.7h3.1c0.8,0,1.5,0.1,2.1,0.3c0.6,0.2,1.2,0.5,1.7,0.9c0.5,0.4,0.8,0.9,1.1,1.5C143.6,13,143.7,13.7,143.7,14.6z
				 M142.7,14.6c0-0.7-0.1-1.3-0.3-1.8c-0.2-0.5-0.5-0.9-0.9-1.2c-0.4-0.3-0.8-0.6-1.3-0.7c-0.5-0.1-1.1-0.2-1.7-0.2h-2.1v8.2h2.4
				c0.6,0,1.1-0.1,1.6-0.3c0.5-0.2,0.9-0.4,1.2-0.8c0.3-0.4,0.6-0.8,0.8-1.3C142.6,15.9,142.7,15.3,142.7,14.6z"/>
			<path class="st5" d="M155.1,14.6c0,0.8-0.1,1.5-0.3,2.1c-0.2,0.6-0.5,1.2-0.9,1.6c-0.4,0.4-0.9,0.8-1.5,1s-1.2,0.4-2,0.4
				c-0.8,0-1.4-0.1-2-0.4c-0.6-0.3-1.1-0.6-1.5-1.1c-0.4-0.5-0.7-1-0.9-1.6c-0.2-0.6-0.3-1.3-0.3-2.1c0-0.8,0.1-1.5,0.3-2.1
				c0.2-0.6,0.5-1.1,0.9-1.6c0.4-0.4,0.9-0.8,1.5-1c0.6-0.2,1.2-0.4,2-0.4c0.7,0,1.4,0.1,2,0.4c0.6,0.2,1.1,0.6,1.5,1
				c0.4,0.4,0.7,1,0.9,1.6C155,13.2,155.1,13.9,155.1,14.6z M154.1,14.6c0-0.6-0.1-1.2-0.2-1.7c-0.2-0.5-0.4-1-0.7-1.3
				c-0.3-0.4-0.7-0.6-1.1-0.8c-0.4-0.2-1-0.3-1.6-0.3c-0.6,0-1.1,0.1-1.6,0.3c-0.5,0.2-0.8,0.5-1.1,0.8c-0.3,0.4-0.5,0.8-0.7,1.3
				c-0.2,0.5-0.2,1.1-0.2,1.7c0,0.6,0.1,1.2,0.2,1.7c0.2,0.5,0.4,1,0.7,1.4c0.3,0.4,0.7,0.7,1.1,0.9s1,0.3,1.6,0.3
				c0.6,0,1.2-0.1,1.6-0.3c0.5-0.2,0.8-0.5,1.1-0.9s0.5-0.8,0.7-1.4C154,15.8,154.1,15.2,154.1,14.6z"/>
			<path class="st5" d="M165,19.6l-6.4-8.7c0,0.2,0,0.4,0,0.6c0,0.2,0,0.4,0,0.6c0,0.2,0,0.4,0,0.6v6.9h-0.9V9.7h1.1l6.5,8.7
				c0-0.2,0-0.4,0-0.6c0-0.2,0-0.4,0-0.6c0-0.2,0-0.5,0-0.7V9.7h0.9v9.9H165z"/>
			<path class="st5" d="M169.2,19.6V9.7h6.5v0.8h-5.5v3.5h5.1v0.8h-5.1v3.8h5.8v0.8H169.2z"/>
			<path class="st5" d="M185.4,16.9c0,0.4-0.1,0.8-0.2,1.1c-0.2,0.3-0.4,0.6-0.7,0.9c-0.3,0.3-0.7,0.4-1.2,0.6
				c-0.5,0.1-1,0.2-1.6,0.2c-1.1,0-2-0.2-2.6-0.6c-0.6-0.4-1-1-1.2-1.8l1-0.2c0.1,0.3,0.2,0.5,0.3,0.7c0.1,0.2,0.3,0.4,0.5,0.6
				c0.2,0.2,0.5,0.3,0.8,0.4c0.3,0.1,0.7,0.1,1.2,0.1c0.4,0,0.7,0,1.1-0.1c0.3-0.1,0.6-0.2,0.9-0.3c0.2-0.2,0.4-0.4,0.6-0.6
				c0.1-0.2,0.2-0.5,0.2-0.9c0-0.4-0.1-0.7-0.3-0.9c-0.2-0.2-0.4-0.4-0.7-0.6s-0.6-0.3-1-0.4c-0.4-0.1-0.7-0.2-1.1-0.3
				c-0.3-0.1-0.5-0.1-0.8-0.2c-0.3-0.1-0.5-0.2-0.7-0.3c-0.2-0.1-0.4-0.2-0.7-0.3c-0.2-0.1-0.4-0.3-0.5-0.5
				c-0.2-0.2-0.3-0.4-0.4-0.6s-0.1-0.5-0.1-0.8c0-0.5,0.1-0.8,0.3-1.2c0.2-0.3,0.4-0.6,0.7-0.8c0.3-0.2,0.7-0.4,1.1-0.5
				c0.4-0.1,0.9-0.1,1.4-0.1c0.6,0,1,0,1.4,0.1c0.4,0.1,0.7,0.2,1,0.4c0.3,0.2,0.5,0.4,0.7,0.7c0.2,0.3,0.3,0.6,0.4,0.9l-1,0.2
				c-0.1-0.3-0.1-0.5-0.3-0.7c-0.1-0.2-0.3-0.4-0.5-0.5c-0.2-0.1-0.4-0.2-0.7-0.3c-0.3-0.1-0.6-0.1-1-0.1c-0.4,0-0.8,0-1.1,0.1
				c-0.3,0.1-0.6,0.2-0.7,0.4c-0.2,0.2-0.3,0.3-0.4,0.6c-0.1,0.2-0.1,0.4-0.1,0.7c0,0.3,0.1,0.6,0.2,0.8c0.1,0.2,0.3,0.4,0.6,0.5
				s0.5,0.3,0.8,0.4c0.3,0.1,0.7,0.2,1,0.3c0.3,0.1,0.6,0.1,0.8,0.2c0.3,0.1,0.5,0.2,0.8,0.3c0.3,0.1,0.5,0.2,0.7,0.3
				c0.2,0.1,0.4,0.3,0.6,0.5s0.3,0.4,0.4,0.7C185.4,16.3,185.4,16.6,185.4,16.9z"/>
			<path class="st5" d="M188,19.6V9.7h1v9.9H188z"/>
			<path class="st5" d="M198.5,19.6l-1.2-3.1h-4.4l-1.2,3.1h-1.1l3.8-9.9h1.2l3.8,9.9H198.5z M195.8,12.3c-0.1-0.2-0.2-0.4-0.2-0.6
				c-0.1-0.2-0.1-0.4-0.2-0.5c-0.1-0.2-0.1-0.3-0.1-0.4c0-0.1-0.1-0.2-0.1-0.2c0,0,0,0.1-0.1,0.2c0,0.1-0.1,0.2-0.1,0.4
				c-0.1,0.2-0.1,0.3-0.2,0.5c-0.1,0.2-0.1,0.4-0.2,0.6l-1.3,3.5h3.9L195.8,12.3z"/>
		</g>
		<g>
			<path class="st5" d="M119.5,9.7h1.1v9.8h-1.1v-8.1h-1.1L119.5,9.7z"/>
		</g>
	</g>
</g>
</svg>
